<?xml version="1.0" encoding="UTF-8" standalone="no"?>
<svg
   xmlns:dc="http://purl.org/dc/elements/1.1/"
   xmlns:cc="http://creativecommons.org/ns#"
   xmlns:rdf="http://www.w3.org/1999/02/22-rdf-syntax-ns#"
   xmlns:svg="http://www.w3.org/2000/svg"
   xmlns="http://www.w3.org/2000/svg"
   xmlns:sodipodi="http://sodipodi.sourceforge.net/DTD/sodipodi-0.dtd"
   xmlns:inkscape="http://www.inkscape.org/namespaces/inkscape"
   width="500mm"
   height="500mm"
   viewBox="0 0 500 500"
   version="1.1"
   id="svg8"
   inkscape:version="1.0.2 (e86c870879, 2021-01-15, custom)"
   sodipodi:docname="turbogenerator.svg">
  <defs
     id="defs2" />
  <sodipodi:namedview
     id="base"
     pagecolor="#ffffff"
     bordercolor="#666666"
     borderopacity="1.0"
     inkscape:pageopacity="0.0"
     inkscape:pageshadow="2"
     inkscape:zoom="0.16148438"
     inkscape:cx="-1083.2212"
     inkscape:cy="-231.25334"
     inkscape:document-units="mm"
     inkscape:current-layer="layer1"
     inkscape:document-rotation="0"
     showgrid="false"
     inkscape:window-width="1920"
     inkscape:window-height="1017"
     inkscape:window-x="-8"
     inkscape:window-y="-8"
     inkscape:window-maximized="1" />
  <metadata
     id="metadata5">
    <rdf:RDF>
      <cc:Work
         rdf:about="">
        <dc:format>image/svg+xml</dc:format>
        <dc:type
           rdf:resource="http://purl.org/dc/dcmitype/StillImage" />
        <dc:title></dc:title>
      </cc:Work>
    </rdf:RDF>
  </metadata>
  <g
     inkscape:label="Layer 1"
     inkscape:groupmode="layer"
     id="layer1">
    <g
       id="g1346"
       transform="matrix(1.2657915,0,0,1.6769161,108.11679,-75.268251)">
      <path
         style="opacity:1;fill:#f9f9f9;stroke:#000000;stroke-width:0.264583px;stroke-linecap:butt;stroke-linejoin:miter;stroke-opacity:1"
         d="M 289.21595,172.75872 126.76036,282.05636 78.230361,265.9444 -77.065642,223.04388 -81.91864,221.68504 47.0741,187.90816 l 181.59929,-55.8823 29.50621,28.41432 z"
         id="path1181"
         sodipodi:nodetypes="ccccccccc" />
      <path
         style="opacity:1;fill:#b3b3b3;stroke:#000000;stroke-width:1.065;stroke-linecap:butt;stroke-linejoin:miter;stroke-miterlimit:4;stroke-dasharray:none;stroke-opacity:1"
         d="m 47.753521,183.34634 c 0,0 2.13532,-2.52356 2.717678,-3.10592 0.582361,-0.58236 2.329442,-2.03826 2.717681,-2.32944 0.388242,-0.29118 3.397099,-2.4265 4.17358,-2.81474 0.77648,-0.38824 4.173579,-0.87354 5.435362,-1.35884 1.261779,-0.4853 3.882397,-0.58236 5.726538,-0.4853 1.84414,0.0971 7.570681,2.52356 7.570681,2.52356 l 7.18244,5.04712 5.3383,7.37656 c 0,0 3.97946,6.3089 4.07652,6.89126 0.09706,0.58236 2.13532,5.04712 2.13532,5.04712 0,0 0.194119,2.4265 0.485298,3.30004 0.291182,0.87354 0.436772,6.64861 0.436772,6.64861 L 95.21586,213.24082 77.939177,207.90252 47.0741,187.90816 Z"
         id="path887" />
      <path
         style="opacity:1;fill:#d47f00;fill-opacity:1;stroke:#000000;stroke-width:0.264583px;stroke-linecap:butt;stroke-linejoin:miter;stroke-opacity:1"
         d="m -24.531915,214.04157 0.946335,-1.31031 c 0,0 0.92207,-0.72795 1.26178,-0.77648 0.33971,-0.0485 1.26178,-0.14559 1.55296,-0.0971 0.29118,0.0485 1.60149,0.53383 2.111055,0.80074 0.509565,0.26692 1.334575,2.28091 1.334575,2.28091 l 0.461035,1.72282 -0.14559,2.59635 c 0,0 -0.363975,1.57723 -0.558095,1.79561 -0.19412,0.21839 -0.77648,1.09193 -0.946335,1.21325 -0.169855,0.12133 -1.26178,0.5581 -1.916935,0.53383 -0.655155,-0.0243 -1.35884,0 -1.60149,-0.0971 -0.24265,-0.0971 -0.29118,-0.12132 -0.412505,-0.21838 -0.121325,-0.0971 -0.363975,-0.53383 -0.363975,-0.53383 z"
         id="path1003" />
      <path
         style="opacity:1;fill:#e6e6e6;stroke:#000000;stroke-width:0.965;stroke-linecap:butt;stroke-linejoin:miter;stroke-miterlimit:4;stroke-dasharray:none;stroke-opacity:1"
         d="m 22.51792,197.42003 30.47684,-8.63833 4.3677,1.65005 5.726541,3.00883 3.736811,2.96033 5.580948,5.09565 3.10592,4.07652 2.426499,2.32944 -24.362057,8.68687 -4.127921,5.12562 -0.720635,-9.16234 -2.676639,-3.29436 -7.519106,-2.13227 -6.600082,-5.8236 z"
         id="path885" />
      <path
         style="opacity:1;fill:#808080;stroke:#000000;stroke-width:0.965;stroke-linecap:butt;stroke-linejoin:miter;stroke-miterlimit:4;stroke-dasharray:none;stroke-opacity:1"
         d="m 99.874741,101.23358 4.658879,-4.27064 5.62948,-2.523558 c 0,0 5.14418,-0.679421 6.01772,-0.873541 0.87354,-0.194119 5.3383,0.679418 6.11478,0.679418 0.77648,0 5.72654,3.591222 5.72654,3.591222 l 4.75594,6.794199 3.59122,7.57068 1.06766,7.95892 c 0,0 -0.4853,5.53242 -0.58236,6.01772 -0.0971,0.4853 -1.9412,6.3089 -2.23238,6.7942 -0.29118,0.4853 -4.17358,5.72654 -4.3677,6.11478 -0.19412,0.38824 -2.13532,2.23238 -2.81474,2.71768 -0.67942,0.4853 -1.4559,1.16472 -2.4265,1.4559 -0.9706,0.29118 -3.3971,1.06766 -4.07652,1.16472 -0.67942,0.0971 -3.49416,0.58236 -3.49416,0.58236 z"
         id="path891" />
      <path
         style="opacity:1;fill:#cccccc;stroke:#000000;stroke-width:0.293412px;stroke-linecap:butt;stroke-linejoin:miter;stroke-opacity:1"
         d="m 58.28453,243.39109 0.339712,7.51994 11.889848,4.35677 33.63129,-20.05306 0.65535,-9.73107"
         id="path1161" />
      <path
         style="opacity:1;fill:#e6e6e6;stroke:#000000;stroke-width:0.965;stroke-linecap:butt;stroke-linejoin:miter;stroke-miterlimit:4;stroke-dasharray:none;stroke-opacity:1"
         d="m 46.944142,225.93584 1.372634,-3.0198 3.84338,-3.29433 3.84338,-0.27453 2.745272,0.68632 2.608008,1.64716 2.470743,3.29433 2.745271,5.49054 0.137263,4.80423 -0.686315,4.11791 -2.608009,4.25516 -3.980643,0.96085 h -3.43159 l -3.294324,-1.37263 -1.784427,-3.29433 -1.509901,-5.49054 -2.058953,-5.76507 z"
         id="path849" />
      <path
         style="opacity:1;fill:#b3b3b3;stroke:#000000;stroke-width:0.264583px;stroke-linecap:butt;stroke-linejoin:miter;stroke-opacity:1"
         d="m 52.160156,219.62171 5.284647,-1.304 c 0,0 2.127586,0.13726 2.539376,0.34316 0.411792,0.20589 2.745272,1.23537 3.157064,1.37263 0.411789,0.13726 3.157061,2.19622 3.157061,2.19622 l 1.647163,2.67664 2.26485,5.6278 -0.617689,4.59833 -0.274526,2.81391 -1.235371,2.53937 -1.784427,1.78443 -1.5099,0.75495 -1.372635,0.61768 2.608009,-4.25516 0.686313,-4.11791 -0.137261,-4.80423 -2.745271,-5.49054 -2.470743,-3.29433 -2.608008,-1.64716 -2.745272,-0.68632 z"
         id="path851" />
      <path
         style="opacity:1;fill:#999999;stroke:#000000;stroke-width:0.965;stroke-linecap:butt;stroke-linejoin:miter;stroke-miterlimit:4;stroke-dasharray:none;stroke-opacity:1"
         d="m 50.859441,220.37473 1.06766,-2.32944 1.650021,-1.4559 c 0,0 1.504428,-0.67942 1.795608,-0.72795 0.291181,-0.0485 1.01913,-0.0971 2.426501,-0.0971 1.407369,0 4.513289,0.77648 4.513289,0.77648 l 4.367699,2.23238 1.213253,1.16472 c 0,0 1.795608,2.47503 1.892667,2.86327 0.09706,0.38824 1.941201,5.19271 1.941201,5.19271 l 0.485301,3.83387 0.14559,4.90153 -0.727951,3.20298 -2.717678,3.63975 c 0,0 -1.892671,1.26178 -2.08679,1.35884 -0.194122,0.0971 -3.10592,1.31031 -3.10592,1.31031 l -5.435362,-0.63089 -2.280994,-1.00665 h 3.43159 l 3.980643,-0.96085 2.882535,-1.37263 1.784427,-1.78443 1.235371,-2.53937 0.892215,-7.41224 -2.26485,-5.6278 -1.647163,-2.67664 -2.724005,-2.09764 -3.833868,-1.65002 -2.295628,-0.16435 -5.284647,1.304 z"
         id="path853" />
      <path
         style="opacity:1;fill:#e6e6e6;stroke:#000000;stroke-width:0.965;stroke-linecap:butt;stroke-linejoin:miter;stroke-miterlimit:4;stroke-dasharray:none;stroke-opacity:1"
         d="m 53.577122,216.58939 28.681229,-10.04571 6.3089,1.06766 7.18244,2.47503 3.494159,2.32944 1.01913,1.35884 1.11619,1.79561 -0.0485,5.72654 -0.63089,2.9118 -0.727949,2.03826 -0.873541,1.65002 -27.46798,12.0354 0.727951,-3.20298 -0.630891,-8.7354 -1.892671,-5.38679 -1.941197,-2.66919 -1.213253,-1.16472 -4.367699,-2.23238 -5.386829,-0.82497 z"
         id="path855" />
      <path
         style="opacity:1;fill:#b3b3b3;stroke:#000000;stroke-width:0.264583px;stroke-linecap:butt;stroke-linejoin:miter;stroke-opacity:1"
         d="m 108.98727,220.20508 -1.33832,-0.51474 -1.57853,0.41179 c 0,0 -0.54905,0.27453 -0.89221,0.65201 -0.34316,0.37747 -0.99516,1.20105 -1.09811,1.33832 -0.10295,0.13726 -0.92653,1.71579 -0.92653,1.71579 0,0 -0.27453,1.75011 -0.34316,2.09327 -0.0686,0.34316 0.0343,1.99032 0.24021,2.53938 0.2059,0.54905 0.44611,1.13242 0.78927,1.47558 0.34316,0.34316 0.54906,0.652 0.96084,0.92653 0.4118,0.27452 -0.41178,0.4461 0.96085,0.41179 1.37264,-0.0343 1.37264,0.20589 1.68148,-0.0343 0.30884,-0.24021 0.51474,-1.44126 0.51474,-1.44126 z"
         id="path859" />
      <path
         style="opacity:1;fill:#999999;stroke:#000000;stroke-width:0.264583px;stroke-linecap:butt;stroke-linejoin:miter;stroke-opacity:1"
         d="m 104.59484,219.48445 c 0,0 -0.10295,-0.8579 -0.20589,-0.99516 -0.10295,-0.13727 -0.51474,-1.09811 -0.65201,-1.30401 -0.13726,-0.20589 -0.82358,-1.23537 -0.99516,-1.40695 -0.17158,-0.17158 -0.27452,-0.42895 -0.42895,-0.49758 -0.15442,-0.0686 -0.84074,-0.37748 -1.20105,-0.37748 -0.36032,0 -0.97801,0.0686 -1.441271,0.17158 -0.463264,0.10295 -0.84074,0.32601 -1.115266,0.48043 -0.274527,0.15442 -1.355477,1.54421 -1.578531,1.75011 -0.223054,0.20589 -1.08095,2.02464 -1.372637,2.43643 -0.291685,0.41179 -0.823579,1.90453 -0.892212,2.35064 -0.06863,0.4461 -0.360318,3.07127 -0.360318,3.07127 l -0.137263,3.24285 0.855988,2.4749 1.722816,2.66915 2.475029,-0.29118 c 0,0 2.450765,-1.18899 2.693415,-1.4559 0.24265,-0.26692 0.89781,-1.91694 0.89781,-1.91694 l 1.21325,-4.80447 0.60662,-3.76107 z"
         id="path865" />
      <path
         style="opacity:1;fill:#ff6600;stroke:#000000;stroke-width:0.264583px;stroke-linecap:butt;stroke-linejoin:miter;stroke-opacity:1"
         d="m 112.65907,222.60719 0.92653,0.30885 c 0,0 0.34316,0.58337 0.44611,0.82358 0.10295,0.24021 0,2.98548 0,2.98548 0,0 -0.8579,1.57853 -0.8579,1.85306 0,0.27452 -1.956,-0.10295 -1.956,-0.10295 l -0.89222,-1.5099 c 0,0 0.0687,-1.61285 0.13727,-2.02464 0.0686,-0.41179 0.72063,-1.304 0.72063,-1.304 l 1.61285,-1.02948 -5.59349,-0.78926 -1.23537,0.78927 -0.75495,1.06379 c 0,0 -0.24021,0.51474 -0.24021,0.99516 0,0.48042 -0.0343,1.02948 0,1.33832 0.0343,0.30884 0.37747,1.26969 0.48042,1.54421 0.10295,0.27453 0.30884,0.92653 0.58337,1.30401 0.27453,0.37747 1.92169,0.92653 1.92169,0.92653 l 4.94149,0.96084 -0.99516,-1.78442 -0.0686,-0.37748 -0.85789,-0.30884 c 0,0 -0.48043,-1.13243 -0.51474,-1.44127 -0.0343,-0.30884 -0.0686,-2.23053 -0.0686,-2.23053 l 0.61768,-0.8579 z"
         id="path857" />
      <path
         style="opacity:1;fill:#cccccc;stroke:#000000;stroke-width:0.264583px;stroke-linecap:butt;stroke-linejoin:miter;stroke-opacity:1"
         d="m 107.64895,219.69034 -1.61284,-0.41179 -0.2059,-0.0686 -2.33348,1.06379 -0.99516,1.61285 c 0,0 -0.72063,1.92169 -0.75495,2.26485 -0.0343,0.34316 -0.10295,2.23053 -0.10295,2.40211 0,0.17158 0.51474,1.78443 0.51474,1.78443 0,0 0.48042,1.20105 0.58337,1.40695 0.10295,0.2059 0.51474,1.16674 0.51474,1.16674 l 1.54421,0.13726 -1.68147,-2.36779 -0.27453,-3.08843 0.89221,-2.71096 2.33348,-2.77959 1.57853,-0.41179"
         id="path861" />
      <path
         style="opacity:1;fill:#cccccc;stroke:#000000;stroke-width:0.264583px;stroke-linecap:butt;stroke-linejoin:miter;stroke-opacity:1"
         d="m 97.937557,221.23456 3.706113,-1.23537 1.85306,0.27455 -1.61285,2.19619 -4.117903,-1.26969 -0.720632,1.68148 -0.240211,1.81875 0.274527,1.40695 0.514738,1.40695 c 0,0 0.549054,0.652 0.720634,0.82358 0.171579,0.17158 0.377475,0.17158 0.377475,0.17158 l 1.681482,0.34316 1.78442,-0.51471 -0.61768,-1.81877 0.34316,-2.23053 0.20589,-1.81875 z"
         id="path863" />
      <path
         style="opacity:1;fill:#666666;stroke:#000000;stroke-width:0.965;stroke-linecap:butt;stroke-linejoin:miter;stroke-miterlimit:4;stroke-dasharray:none;stroke-opacity:1"
         d="m 100.82108,214.76952 -3.785345,-0.41251 -2.96033,0.84928 -1.747078,2.18385 -1.431637,4.17358 c 0,0 -0.77648,3.85813 -0.752215,3.95519 0.02426,0.0971 0.67942,3.22725 0.67942,3.22725 l 1.26178,2.93606 1.237517,0.75222 3.469894,1.11619 -1.722816,-2.66915 -0.855988,-2.4749 0.516279,-6.47889 1.650021,-3.73681 2.208114,-2.52356 z"
         id="path867" />
      <path
         style="opacity:1;fill:#e6e6e6;stroke:#000000;stroke-width:0.264583px;stroke-linecap:butt;stroke-linejoin:miter;stroke-opacity:1"
         d="M 42.757603,226.69078 42.483074,215.5038 c 0,0 -0.34316,-0.61768 -0.960845,-1.304 -0.617686,-0.68632 -1.647161,-0.61768 -2.539376,-0.89221 -0.892212,-0.27453 -3.294324,-0.0686 -3.294324,-0.0686 h -1.029478 c 0,0 -1.029475,-1.99033 -1.029475,-2.26485 0,-0.27453 0.686316,-3.56886 0.686316,-3.56886 l 1.098108,-0.68632 8.78487,1.99033 2.539376,0.82358 1.99032,3.0198 0.411792,3.29432 0.308843,5.86802 -1.132425,1.20106 -1.372634,3.0198 -0.10295,1.88737 -1.57853,0.48042 c 0,0 -0.823582,-0.17158 -1.098108,-0.27452 -0.274527,-0.10295 -0.514739,-0.13727 -0.686319,-0.34316 -0.17158,-0.2059 -0.720632,-0.99517 -0.720632,-0.99517 z"
         id="path869" />
      <path
         style="opacity:1;fill:#e6e6e6;stroke:#000000;stroke-width:1.065;stroke-linecap:butt;stroke-linejoin:miter;stroke-miterlimit:4;stroke-dasharray:none;stroke-opacity:1"
         d="m 22.51792,197.42004 11.06484,1.06766 7.667739,1.06766 c 0,0 2.523561,0.87354 3.00886,1.06766 0.485302,0.19412 1.455902,2.23238 1.455902,2.23238 l 0.611193,2.4909 -0.274527,3.91201 0.686319,0.27456 1.99032,3.0198 0.549055,5.79935 0.17158,3.36299 1.41024,-1.34028 c 0,0 1.06766,-2.32944 1.06766,-2.32944 l 1.650021,-1.4559 0.53904,-1.84054 -0.06863,-9.09371 -1.509898,-6.10823 c 0,0 -1.956006,-3.94632 -2.09327,-4.08359 -0.137263,-0.13726 -6.897494,-3.12274 -6.897494,-3.12274 l -9.368239,-0.92653 -3.088431,-0.24021 -6.863178,-0.44611 c 0,0 -1.029477,0.78927 -1.132425,0.96084 -0.102947,0.17158 -0.446106,0.72064 -0.480422,0.89222 -0.03432,0.17158 -0.411791,0.68632 -0.411791,1.26968 0,0.58338 0.102948,2.02464 0.102948,2.02464 z"
         id="path871" />
      <path
         style="opacity:1;fill:#cccccc;stroke:#000000;stroke-width:1.065;stroke-linecap:butt;stroke-linejoin:miter;stroke-miterlimit:4;stroke-dasharray:none;stroke-opacity:1"
         d="m 24.227022,190.72773 -3.929172,-0.41179 -2.402112,-0.0858 -0.978003,0.13726 c 0,0 -0.652002,0.652 -0.789266,0.90938 -0.137263,0.25736 -0.600528,1.52705 -0.600528,1.71579 0,0.18874 0.686318,2.62517 0.75495,2.76243 0.06863,0.13726 0.223053,0.66916 0.274527,0.73779 0.05147,0.0686 0.703476,0.41179 0.703476,0.41179 l 5.257026,0.51545 -0.418485,-3.74114 c 0,0 0.446106,-0.80643 0.49758,-0.89222 0.05147,-0.0858 0.737792,-1.37263 0.978003,-1.50989 0.240211,-0.13727 0.652004,-0.54906 0.652004,-0.54906 z"
         id="path873" />
      <path
         style="opacity:1;fill:#ececec;stroke:#000000;stroke-width:1.065;stroke-linecap:butt;stroke-linejoin:miter;stroke-miterlimit:4;stroke-dasharray:none;stroke-opacity:1"
         d="m 61.633099,190.77143 8.492752,1.06766 6.21184,1.35884 c 0,0 2.232379,1.4559 2.426499,1.65002 0.194119,0.19412 0.9706,1.74708 0.9706,1.74708 l 0.9706,2.32944 -0.291179,8.29863 -5.14418,1.69855 0.242649,-7.23097 c 0,0 0.24265,-1.69855 0.19412,-2.08679 -0.04853,-0.38824 0.77648,-1.01913 -0.533829,-1.21325 -1.310312,-0.19412 -0.388241,0.0971 -2.08679,-0.19412 -1.698551,-0.29118 -6.260369,-1.79561 -6.260369,-1.79561 l -3.542692,-0.63089 c 0,0 -0.388239,0.14559 -1.213249,-0.72795 -0.825011,-0.87354 -2.523562,-1.89267 -2.523562,-1.89267 0,0 -0.291179,-0.4853 -0.194119,-0.9706 0.09706,-0.4853 0.77648,-0.77648 1.01913,-0.9706 0.242649,-0.19412 1.261779,-0.43677 1.261779,-0.43677 z"
         id="path875" />
      <path
         style="opacity:1;fill:#e6e6e6;stroke:#000000;stroke-width:1.065;stroke-linecap:butt;stroke-linejoin:miter;stroke-miterlimit:4;stroke-dasharray:none;stroke-opacity:1"
         d="m 24.227022,190.72772 0.668868,-3.64457 c 0,0 0.92207,-0.72795 1.31031,-1.01913 0.38824,-0.29118 1.31031,-0.43677 2.620619,-0.9706 1.310312,-0.53383 3.688282,-0.92207 4.076521,-1.01913 0.388241,-0.0971 2.280912,-0.72795 2.280912,-0.72795 l 1.504428,2.03826 -0.145589,1.89267 -0.14559,0.72795 -3.300042,0.4853 c 0,0 -1.11619,0.43677 -1.504429,0.67942 -0.388239,0.24265 -2.329439,1.11619 -2.329439,1.11619 l -0.533831,0.87354 -4.502738,-0.43195"
         id="path877" />
      <path
         style="opacity:1;fill:#ececec;stroke:#000000;stroke-width:1.065;stroke-linecap:butt;stroke-linejoin:miter;stroke-miterlimit:4;stroke-dasharray:none;stroke-opacity:1"
         d="m 35.184252,183.34634 3.930927,-0.43677 2.523562,-0.0485 c 0,0 3.202979,0.29118 4.02799,0.43677 0.82501,0.14559 6.93979,1.21325 6.93979,1.21325 l 2.669149,0.72795 c 0,0 1.213249,1.60149 1.358842,1.9412 0.145589,0.33971 0.727948,3.25151 0.727948,3.25151 l -0.14559,0.33971 -3.397099,-0.14559 c 0,0 -0.291179,-0.53383 -0.436772,-0.92207 -0.145589,-0.38824 0.145593,-1.16472 -0.873537,-1.31031 -1.01913,-0.14559 -7.667742,-1.01913 -7.667742,-1.01913 l -5.629481,-0.72795 -2.669148,0.63089 0.145589,-1.89267 z"
         id="path879" />
      <path
         style="opacity:1;fill:#cccccc;stroke:#000000;stroke-width:0.965;stroke-linecap:butt;stroke-linejoin:miter;stroke-miterlimit:4;stroke-dasharray:none;stroke-opacity:1"
         d="m 0.38824,214.21142 c -0.09706,-0.4853 1.06766,-5.3383 1.06766,-5.3383 0,0 1.8441399,-4.27064 2.13532,-4.95006 0.29118,-0.67942 2.03826,-3.20298 2.32944,-3.59122 0.2911801,-0.38824 5.04712,-2.32944 5.04712,-2.32944 0,0 6.293114,-1.09782 6.293114,-1.09782 0,0 5.257026,0.51546 5.257026,0.51546 l 9.414819,3.8824 4.755941,3.68828 1.844141,2.13532 3.950253,8.37776 0.274529,11.18698 z"
         id="path881" />
      <path
         style="opacity:1;fill:#cccccc;stroke:#000000;stroke-width:0.865;stroke-linecap:butt;stroke-linejoin:miter;stroke-miterlimit:4;stroke-dasharray:none;stroke-opacity:1"
         d="m 4.4647601,201.3995 c 0,0 -3.97946009,-0.9706 -4.6588801,-1.26178 -0.67942001,-0.29118 -2.23238,-0.58236 -2.8147401,-0.58236 -0.5823599,0 -2.7176799,0.4853 -2.7176799,0.4853 0,0 -1.0676601,1.4559 -1.5529599,1.74708 -0.4853001,0.29118 -1.6500203,4.95006 -1.6500203,4.95006 l 0.1941201,5.62948 0.09706,12.42368 2.5235601,0.9706 2.52356,0.58236 0.7764799,-20.28554 1.94120009,-0.19412 3.20298001,0.87354 z"
         id="path883" />
      <path
         style="opacity:1;fill:#4d4d4d;stroke:#000000;stroke-width:0.264583px;stroke-linecap:butt;stroke-linejoin:miter;stroke-opacity:1"
         d="m 118.1153,218.69518 c 0,0 2.14204,-1.76608 2.33616,-1.9602 0.19412,-0.19412 2.28091,-1.21325 2.66915,-1.35884 0.38824,-0.14559 0.87354,-0.24265 1.79561,-0.38824 0.92207,-0.14559 5.38683,-0.72795 5.67801,-0.72795 0.29118,0 4.41623,0.63089 5.19271,0.87354 0.77648,0.24265 3.10592,1.65002 3.68828,2.03826 0.58236,0.38824 3.54269,1.79561 4.56182,3.49416 1.01913,1.69855 1.69855,2.81474 2.37797,3.97946 0.67942,1.16472 0.63089,1.84414 1.26178,3.00886 0.63089,1.16472 1.06766,1.60149 1.26178,2.86327 0.19412,1.26178 0.38824,4.02799 0.4853,4.41623 0.0971,0.38824 0.58236,3.10592 0.58236,3.10592 l 0.0485,1.21325"
         id="path1033" />
      <path
         style="opacity:1;fill:#cccccc;stroke:#000000;stroke-width:1.365;stroke-linecap:butt;stroke-linejoin:miter;stroke-miterlimit:4;stroke-dasharray:none;stroke-opacity:1"
         d="m 65.224321,172.86386 8.735401,-2.13532 -0.388242,-2.13532 -2.9118,-1.35884 0.291182,-4.65888 -1.455902,-0.38824 0.19412,-3.78534 1.74708,-1.16472 1.844141,-14.559 1.84414,-8.7354 4.464759,-11.84132 c 0,0 3.688281,-5.3383 4.07652,-6.11478 0.388239,-0.77648 8.34716,-9.31776 8.34716,-9.31776 l 6.01772,-4.07652 4.46476,-1.65002 8.15304,-2.329439 8.15304,-0.388241 c 0,0 3.8824,1.747081 4.65888,2.32944 0.77648,0.58236 5.43536,4.853 5.43536,4.853 l 1.9412,4.46476 0.77648,6.60008 1.55296,3.68828 c 0,0 -0.19412,6.98832 -0.38824,8.15304 -0.19412,1.16472 -4.27064,7.57068 -4.27064,7.57068 l -6.21184,1.16472 c 0,0 -2.32944,3.68828 -3.30004,4.853 -0.9706,1.16472 -3.30004,6.7942 -3.49416,7.57068 -0.19412,0.77648 -0.38824,7.57068 -0.19412,8.34716 0.19412,0.77648 0.87354,-0.29118 0.87354,-0.29118 l 1.50443,0.77648 0.19412,1.26178 0.24265,2.9118 -1.01913,0.77648 0.29118,4.02799 1.01913,-3.44563 7.18244,3.49416 5.43536,4.853 6.21184,8.54128 2.9118,6.40596 0.58236,5.72654 -0.77648,7.08538 -0.87354,4.3677 -35.62102,12.32662 -2.08679,-1.06766 -0.55809,-0.80074 -5.071389,-4.68315 -0.92207,-9.94865 -2.426499,-6.01772 -9.123643,-13.29722 -7.18244,-5.04712 -6.794198,-2.62062 z"
         id="path889" />
      <path
         style="opacity:1;fill:#cccccc;stroke:#000000;stroke-width:0.965;stroke-linecap:butt;stroke-linejoin:miter;stroke-miterlimit:4;stroke-dasharray:none;stroke-opacity:1"
         d="m 118.8985,93.565841 6.69714,0.485299 c 0,0 4.65888,2.329442 5.8236,2.9118 1.16472,0.582362 3.49416,2.13532 3.97946,2.717681 0.4853,0.582359 3.20298,5.435359 3.20298,5.435359 l 3.49416,8.63834 c 0,0 0.58236,6.89126 0.58236,9.80306 0,2.9118 -2.23238,8.63834 -2.4265,9.12364 -0.19412,0.4853 -2.81474,4.46476 -3.49416,5.3383 -0.67942,0.87354 -5.72654,5.24124 -5.72654,5.24124 l -4.3677,2.71768 c 0,0 -9.2207,-0.9706 -9.2207,-0.9706 l 8.54128,-1.84414 8.63834,-9.80306 2.62062,-7.95892 0.19412,-5.24124 -1.06766,-7.95892 -3.59122,-7.57068 -4.75594,-6.794199 -5.53242,-3.979461 z"
         id="path893" />
      <path
         style="opacity:1;fill:#c8beb7;stroke:#000000;stroke-width:1.265;stroke-linecap:butt;stroke-linejoin:miter;stroke-miterlimit:4;stroke-dasharray:none;stroke-opacity:1"
         d="m 134.4281,98.418842 c 0.38824,0 70.07732,1.358839 70.07732,1.358839 l 13.5884,-0.194119 c 0,0 2.81474,0.485298 3.59122,0.679418 0.77648,0.19412 2.81474,1.35884 3.8824,2.03826 1.06766,0.67942 2.9118,1.84414 2.9118,1.84414 0,0 1.26178,2.13532 1.4559,2.52356 0.19412,0.38824 1.35884,3.59122 1.35884,3.59122 0,0 0.29118,1.84414 0.29118,2.81474 0,0.9706 -0.67942,4.75594 -0.87354,5.14418 -0.19412,0.38824 -5.3383,5.92066 -5.3383,5.92066 l -3.78534,2.23238 -83.66572,9.99718 2.13532,-2.62062 2.81474,-9.02658 -0.77648,-10.96778 -4.65888,-10.77366 -1.35884,-3.202979 z"
         id="path895" />
      <path
         style="opacity:1;fill:#e6e6e6;stroke:#000000;stroke-width:0.264583px;stroke-linecap:butt;stroke-linejoin:miter;stroke-opacity:1"
         d="m 193.88479,127.58649 v 6.79454 c 0,0 -5.01012,1.09811 -5.28465,1.02948 -0.27452,-0.0686 -7.27497,-0.48042 -8.09855,-0.54905 -0.82358,-0.0686 -6.17686,-0.0686 -6.86318,-0.34316 -0.68631,-0.27453 -1.78442,-0.13727 -2.53937,-0.27453 -0.75495,-0.13726 -1.78443,-0.75495 -1.78443,-0.75495 l -0.54905,-0.75495 z"
         id="path897" />
      <path
         style="opacity:1;fill:#e6e6e6;stroke:#000000;stroke-width:0.264583px;stroke-linecap:butt;stroke-linejoin:miter;stroke-opacity:1"
         d="m 157.57858,132.45934 -0.0686,8.37308 c 0,0 -4.25518,0.27453 -4.87286,0.27453 -0.61769,0 -2.53938,0.27453 -4.3238,0.2059 -1.78443,-0.0686 -5.42191,0.13726 -6.72592,-0.13727 -1.304,-0.27453 -2.95117,-0.20589 -3.50022,-0.34316 -0.54905,-0.13726 -2.67664,-0.48042 -2.67664,-0.48042 l -0.27453,-1.02948 c 0,0 10.70656,-3.50022 12.14783,-3.84338 1.44127,-0.34316 4.3238,-1.304 5.28465,-1.85305 0.96084,-0.54906 2.19621,-0.82359 2.88253,-1.02948 0.68632,-0.2059 2.12759,-0.13727 2.12759,-0.13727 z"
         id="path899" />
      <path
         style="opacity:1;fill:#edaa00;fill-opacity:1;stroke:#000000;stroke-width:0.865;stroke-linecap:butt;stroke-linejoin:miter;stroke-miterlimit:4;stroke-dasharray:none;stroke-opacity:1"
         d="m 126.6633,145.97824 6.89415,0.75652 c 0,0 5.07875,1.64716 6.17686,1.92169 1.09811,0.27452 6.58865,2.608 7.68676,3.01979 1.09811,0.4118 6.72592,3.56886 7.27497,3.98065 0.54906,0.41179 7.5495,6.58865 7.5495,6.58865 l 11.94193,22.37396 2.19622,8.64761 -36.22905,-6.13543 -2.9118,-6.40596 -6.21184,-8.54128 -5.43536,-4.853 -8.49275,-4.07652 -0.92207,-5.72654 -0.60489,-7.91109 1.86667,-4.60965 9.2207,0.9706"
         id="path901" />
      <path
         style="opacity:1;fill:#ffcc00;stroke:#000000;stroke-width:0.865;stroke-linecap:butt;stroke-linejoin:miter;stroke-miterlimit:4;stroke-dasharray:none;stroke-opacity:1"
         d="m 117.4426,145.00764 41.37135,-7.33228 c 0,0 15.92257,2.19622 16.74615,2.19622 0.82359,0 16.05984,6.58865 16.05984,6.58865 l 11.25561,11.53014 5.62781,11.80466 2.19622,8.51035 c 0,0 -34.31589,14.96173 -34.31589,14.96173 l -2.19622,-8.64761 -11.94193,-22.37396 -7.5495,-7.41224 -21.13859,-8.09854 z"
         id="path905" />
      <path
         style="opacity:1;fill:#ffcc00;stroke:#000000;stroke-width:0.865;stroke-linecap:butt;stroke-linejoin:miter;stroke-miterlimit:4;stroke-dasharray:none;stroke-opacity:1"
         d="m 160.73136,137.24284 12.1325,-2.32944 16.30608,0.58236 4.71485,-1.11473 v 0 l 8.29119,-0.63235 c 0,0 7.57068,0.58236 9.02658,0.9706 1.4559,0.38824 7.95892,3.00886 8.63834,3.10592 0.67942,0.0971 11.45308,11.6472 11.45308,11.6472 l 4.56182,8.7354 2.62062,8.15304 -24.45912,9.80306 -4.07652,-11.06484 -12.1325,-16.59726 c 0,0 -8.7354,-5.72654 -9.2207,-6.11478 -0.4853,-0.38824 -20.77084,-4.65888 -20.77084,-4.65888 z"
         id="path907" />
      <path
         style="opacity:1;fill:#ffcc00;stroke:#000000;stroke-width:0.865;stroke-linecap:butt;stroke-linejoin:miter;stroke-miterlimit:4;stroke-dasharray:none;stroke-opacity:1"
         d="m 221.00562,129.67216 9.90012,0.87354 8.15304,2.03826 9.31776,5.8236 4.07652,5.24124 4.75594,8.15304 2.32944,6.60008 -21.06202,7.95892 -3.20298,-13.97664 -7.7648,-9.80306 -7.7648,-4.75594 -10.28836,-3.68828 -7.2795,-0.38824 -8.29119,0.63235 z"
         id="path909" />
      <path
         style="opacity:1;fill:#edaa00;fill-opacity:1;stroke:#000000;stroke-width:0.865;stroke-linecap:butt;stroke-linejoin:miter;stroke-miterlimit:4;stroke-dasharray:none;stroke-opacity:1"
         d="m 176.38369,193.26711 1.43023,17.35309 31.35038,-15.14136 1.4559,-14.85018 z"
         id="path911" />
      <path
         style="opacity:1;fill:#edaa00;fill-opacity:1;stroke:#000000;stroke-width:0.865;stroke-linecap:butt;stroke-linejoin:miter;stroke-miterlimit:4;stroke-dasharray:none;stroke-opacity:1"
         d="m 214.5026,178.1051 0.19412,14.17076 22.61498,-11.25896 0.0971,-11.84132 z"
         id="path913" />
      <path
         style="opacity:1;fill:#edaa00;fill-opacity:1;stroke:#000000;stroke-width:0.865;stroke-linecap:butt;stroke-linejoin:miter;stroke-miterlimit:4;stroke-dasharray:none;stroke-opacity:1"
         d="m 241.58234,167.4285 16.59726,-6.98832 -0.67942,10.48248 -16.40314,8.15304 z"
         id="path915" />
      <path
         style="opacity:1;fill:#edaa00;fill-opacity:1;stroke:#000000;stroke-width:0.865;stroke-linecap:butt;stroke-linejoin:miter;stroke-miterlimit:4;stroke-dasharray:none;stroke-opacity:1"
         d="m 146.5606,189.84936 27.37092,4.17358 2.03826,15.43254 -27.1768,-3.10592 z"
         id="path917" />
      <path
         style="opacity:1;fill:#b3b3b3;stroke:#000000;stroke-width:0.264583px;stroke-linecap:butt;stroke-linejoin:miter;stroke-opacity:1"
         d="m -22.61498,211.25109 c 0,0 0.92207,-2.37797 1.01913,-2.66915 0.09706,-0.29118 1.65002,-2.28091 1.74708,-2.47503 0.09706,-0.19412 0.63089,-0.58236 0.92207,-0.82501 0.29118,-0.24265 2.52356,-0.67942 2.52356,-0.67942 0,0 1.65002,-0.14559 1.98973,-0.0485 0.33971,0.0971 1.35884,0.67942 1.89267,0.92207 0.53383,0.24265 3.0573899,4.12505 3.0573899,4.12505 l 1.01913,4.46476 c 0,0 0.63089,3.63975 0.63089,3.93093 0,0.29118 -0.72795,4.41623 -0.7764799,4.75594 -0.04853,0.33971 1.9897301,1.26177 -0.04853,2.03826 -2.03826,0.77648 -3.25151,1.84414 -4.65888,1.9412 -1.40737,0.0971 -2.32944,0.0971 -3.25151,-0.29118 -0.92207,-0.38824 -2.23238,-1.06766 -2.4265,-1.69855 -0.19412,-0.63089 -0.43677,-1.79561 -0.72795,-2.66915 -0.29118,-0.87354 -2.08679,-7.13391 -2.08679,-7.13391 z"
         id="path919" />
      <path
         style="opacity:1;fill:#cccccc;stroke:#000000;stroke-width:0.264583px;stroke-linecap:butt;stroke-linejoin:miter;stroke-opacity:1"
         d="m -16.40314,204.60248 3.25151,-1.16472 c 0,0 2.47503,0.9706 2.71768,1.06766 0.24265,0.0971 1.2617799,0.63089 1.2617799,0.63089 l 0.3397099,0.53383 -0.09706,1.06766 0.04853,5.19271 -0.5823601,-2.32941 -2.9603297,-4.17361 -2.81474,-1.06766 z"
         id="path921" />
      <path
         style="opacity:1;fill:#cccccc;stroke:#000000;stroke-width:0.264583px;stroke-linecap:butt;stroke-linejoin:miter;stroke-opacity:1"
         d="m -19.07229,205.08778 2.23238,-1.84414 1.65002,-1.40737 c 0,0 1.11619,-0.38824 1.89267,-0.53383 0.77648,-0.14559 2.66915,0 2.86327,0 0.19412,0 2.3779699,1.74708 2.3779699,1.74708 l -0.7764801,2.62062 -4.3191698,-2.23238 -2.08679,0.92207 z"
         id="path923" />
      <path
         style="opacity:1;fill:#ffcc00;stroke:#000000;stroke-width:0.865;stroke-linecap:butt;stroke-linejoin:miter;stroke-miterlimit:4;stroke-dasharray:none;stroke-opacity:1"
         d="m -3.500221,224.70046 0.2058953,8.09855 6.9318102,1.99032 0.2058955,-8.85349 z"
         id="path925" />
      <path
         style="opacity:1;fill:#ffcc00;stroke:#000000;stroke-width:0.865;stroke-linecap:butt;stroke-linejoin:miter;stroke-miterlimit:4;stroke-dasharray:none;stroke-opacity:1"
         d="m -3.500221,224.70046 6.1082288,-2.53937 7.5494962,1.64716 -6.314124,2.12759 z"
         id="path927" />
      <path
         style="opacity:1;fill:#ffcc00;stroke:#000000;stroke-width:0.865;stroke-linecap:butt;stroke-linejoin:miter;stroke-miterlimit:4;stroke-dasharray:none;stroke-opacity:1"
         d="m 10.157504,223.80825 -0.137263,8.71624 -6.3827565,2.26484 0.2058955,-8.85349 z"
         id="path929" />
      <path
         style="opacity:1;fill:#cccccc;stroke:#000000;stroke-width:0.865;stroke-linecap:butt;stroke-linejoin:miter;stroke-miterlimit:4;stroke-dasharray:none;stroke-opacity:1"
         d="m -11.255613,232.38722 -0.06863,7.20634 36.443478,10.08887 0.274527,-8.16718 z"
         id="path931" />
      <path
         style="opacity:1;fill:#999999;stroke:#000000;stroke-width:0.865;stroke-linecap:butt;stroke-linejoin:miter;stroke-miterlimit:4;stroke-dasharray:none;stroke-opacity:1"
         d="m 25.393762,241.51525 4.500717,1.03769 0.14559,9.02658 -4.707409,-0.92207 z"
         id="path933" />
      <path
         style="opacity:1;fill:#999999;stroke:#000000;stroke-width:0.264583px;stroke-linecap:butt;stroke-linejoin:miter;stroke-opacity:1"
         d="m 25.393762,241.51525 7.461048,-2.79618 4.173579,1.26178 -7.13391,2.57209 z"
         id="path935" />
      <path
         style="opacity:1;fill:#999999;stroke:#000000;stroke-width:0.865;stroke-linecap:butt;stroke-linejoin:miter;stroke-miterlimit:4;stroke-dasharray:none;stroke-opacity:1"
         d="m 29.894479,242.55294 0.14559,9.02658 10.1913,-3.83387 -0.533829,-8.20157 z"
         id="path937" />
      <path
         style="opacity:1;fill:#ff6600;stroke:#000000;stroke-width:0.264583px;stroke-linecap:butt;stroke-linejoin:miter;stroke-opacity:1"
         d="m -27.079741,215.23055 5.435361,-1.69855 2.18385,0.87354 0.63089,1.60149 0.29118,2.03826 -0.29118,1.60149 -0.92207,1.26178 -6.7942,1.89267 -0.388239,-5.72654 -1.01913,-1.4559 z"
         id="path939" />
      <path
         style="opacity:1;fill:#ff6600;stroke:#000000;stroke-width:0.264583px;stroke-linecap:butt;stroke-linejoin:miter;stroke-opacity:1"
         d="m -35.232781,216.9291 4.416231,0.63089 -0.388241,5.87213 -3.930928,-0.38824 z"
         id="path941" />
      <path
         style="opacity:1;fill:#ff7f2a;stroke:#000000;stroke-width:0.264583px;stroke-linecap:butt;stroke-linejoin:miter;stroke-opacity:1"
         d="m -37.95046,221.00562 3.591219,-1.06766 0.630891,0.29118 c 0,0 0.291179,0.33971 0.291179,0.53383 0,0.19412 0,0.33971 0,0.33971 l -3.8824,1.40737 h -0.339709 c 0,0 -0.09706,0.14559 -0.29118,-0.29118 -0.194119,-0.43677 0,-1.21325 0,-1.21325 z"
         id="path943" />
      <path
         style="opacity:1;fill:#ff6600;stroke:#000000;stroke-width:0.264583px;stroke-linecap:butt;stroke-linejoin:miter;stroke-opacity:1"
         d="m -32.70922,226.53804 -3.882401,0.67942 4.3677,1.79561 14.801651,-4.07652 -5.19271,-1.84414 -10.09424,3.44563"
         id="path947" />
      <path
         style="opacity:1;fill:#ff7f2a;stroke:#000000;stroke-width:0.264583px;stroke-linecap:butt;stroke-linejoin:miter;stroke-opacity:1"
         d="m -33.097459,223.86889 0.388239,2.66915 2.9118,0.9706 -1.407371,-4.07652 -2.18385,0.24265"
         id="path945" />
      <path
         style="opacity:1;fill:#ff7f2a;stroke:#000000;stroke-width:0.264583px;stroke-linecap:butt;stroke-linejoin:miter;stroke-opacity:1"
         d="m -33.437171,228.72189 0.24265,5.96919 1.552961,0.14559 0.291179,-0.33971 -0.0728,-5.67801 -0.800745,0.19412 z"
         id="path949" />
      <path
         style="opacity:1;fill:#d45500;stroke:#000000;stroke-width:0.264583px;stroke-linecap:butt;stroke-linejoin:miter;stroke-opacity:1"
         d="m -31.204791,223.43212 1.624491,0.41045 c 0,0 0.549056,0.0343 0.789265,-0.0343 0.240213,-0.0686 1.304005,-0.34316 1.304005,-0.34316 l 0.94112,-0.66386 -0.388239,-5.72654 -1.01913,-1.4559 -1.695651,-1.69352 -1.85306,0.37748 c 0,0 -1.235371,0.61768 -1.406951,0.75495 -0.171579,0.13726 -2.32384,1.8714 -2.32384,1.8714 l 4.416231,0.63089 z"
         id="path951" />
      <path
         style="opacity:1;fill:none;stroke:#000000;stroke-width:0.264583px;stroke-linecap:butt;stroke-linejoin:miter;stroke-opacity:1"
         d="m 1.8187423,222.1954 c -0.1715795,-0.30884 -0.4804225,-0.58337 -0.2402112,-0.96084 0.2402112,-0.37748 0.3774748,-0.44611 0.7892655,-0.44611 0.4117907,0 8.4760254,1.78443 8.4760254,1.78443 l 0.652002,1.33832 -0.411791,8.47602 -1.063792,0.13727 0.137263,-8.71624 -7.5494962,-1.64716 z"
         id="path953" />
      <path
         style="opacity:1;fill:#b3b3b3;stroke:#000000;stroke-width:0.264583px;stroke-linecap:butt;stroke-linejoin:miter;stroke-opacity:1"
         d="m 3.3972732,220.75414 11.9076148,-3.36296 c 0,0 1.475583,0.41179 1.956006,0.58337 0.480422,0.17158 1.853058,0.89221 2.024638,1.02948 0.171579,0.13726 1.612846,1.16674 1.612846,1.16674 l 0.789266,1.33831 1.606756,0.5642 1.31031,2.96033 1.79561,1.35884 0.33971,1.9412 3.73681,0.92207 -0.145589,8.58981 -7.376561,2.86327 -17.32521,-4.17358 -1.9412,-0.53383 -0.050795,-1.21206 6.382757,-2.26484 1.063792,-0.13727 0.411791,-8.47602 -0.652002,-1.33832 z"
         id="path955" />
      <path
         style="opacity:1;fill:#ff6600;stroke:#000000;stroke-width:0.264583px;stroke-linecap:butt;stroke-linejoin:miter;stroke-opacity:1"
         d="m 68.974943,254.21213 -0.06863,-22.71712 c 0,0 -0.411792,-0.96085 -0.686318,-1.16674 -0.274527,-0.20589 0.205891,-0.0686 -1.647164,0.13726 -1.853057,0.2059 -10.637924,3.08843 -10.912453,3.36296 -0.274527,0.27453 -0.823582,0.68632 -1.647161,0.61769 -0.823582,-0.0686 -3.568854,-1.09811 -3.568854,-1.09811 l -0.480422,0.29168 c 0,0 -0.06863,0.25737 -0.06863,0.36032 0,0.10295 0.06863,0.24021 0.06863,0.24021 0,0 0.428948,0.25737 0.514739,0.25737 0.08579,0 3.277166,0.8579 3.277166,0.8579 0,0 1.372637,0 1.475584,0 0.102947,0 0.943687,-0.10295 1.252529,-0.27453 0.308843,-0.17158 2.384955,-0.77211 2.384955,-0.77211 l 7.703917,-2.72811 0.943687,-0.326 c 0,0 0.240213,0.27453 0.240213,0.51474 0,0.24021 0.08579,1.1839 0.08579,1.49274 0,0.30884 -0.03431,8.13286 -0.03431,8.13286 l 0.102947,9.43688 0.03432,3.31148 0.531895,0.20589 z"
         id="path959" />
      <path
         style="opacity:1;fill:none;stroke:#000000;stroke-width:0.264583px;stroke-linecap:butt;stroke-linejoin:miter;stroke-opacity:1"
         d="m 36.567356,236.94773 0.09706,-2.35371 4.998591,0.94634 -0.04853,5.65374 -4.950061,-0.29118 z"
         id="path965" />
      <path
         style="opacity:1;fill:none;stroke:#000000;stroke-width:0.264583px;stroke-linecap:butt;stroke-linejoin:miter;stroke-opacity:1"
         d="m 39.463276,241.27504 0.06863,3.6718 2.642322,1.5099 -0.06863,-4.63265 z"
         id="path967" />
      <path
         style="opacity:1;fill:#d45500;stroke:#000000;stroke-width:0.264583px;stroke-linecap:butt;stroke-linejoin:miter;stroke-opacity:1"
         d="m 39.223066,244.29484 -4.632645,1.956 6.451385,2.12759 10.672244,-4.15222 0.137263,-4.63265 z"
         id="path969" />
      <path
         style="opacity:1;fill:#666666;stroke:#000000;stroke-width:0.865;stroke-linecap:butt;stroke-linejoin:miter;stroke-miterlimit:4;stroke-dasharray:none;stroke-opacity:1"
         d="m 30.403882,232.52449 c 0.171579,0.0343 6.571493,1.54421 6.571493,1.54421 l -0.31096,0.52532 0.0021,5.11965 -3.811722,-0.9946 -2.523559,-0.87354 z"
         id="path973" />
      <path
         style="opacity:1;fill:#666666;stroke:#000000;stroke-width:0.264583px;stroke-linecap:butt;stroke-linejoin:miter;stroke-opacity:1"
         d="m 30.403882,232.52449 3.208536,-1.04664 4.100747,1.13243 0.09171,0.86755 -0.829495,0.59087 -6.571493,-1.54421"
         id="path975" />
      <path
         style="opacity:1;fill:#666666;stroke:#000000;stroke-width:0.865;stroke-linecap:butt;stroke-linejoin:miter;stroke-miterlimit:4;stroke-dasharray:none;stroke-opacity:1"
         d="m 26.49738,222.63138 3.664016,0.8978 0.315444,5.72654 -3.73681,-0.92207 z"
         id="path977" />
      <path
         style="opacity:1;fill:#666666;stroke:#000000;stroke-width:0.264583px;stroke-linecap:butt;stroke-linejoin:miter;stroke-opacity:1"
         d="m 26.49738,222.63138 4.853001,-1.5287 5.605214,1.0434 -0.776481,0.50956 -3.033122,-0.4125 -2.984596,1.28604 z"
         id="path979" />
      <path
         style="opacity:1;fill:none;stroke:#000000;stroke-width:0.264583px;stroke-linecap:butt;stroke-linejoin:miter;stroke-opacity:1"
         d="m 36.179114,222.65564 -0.02426,6.09052 -0.873538,0.24265"
         id="path981" />
      <path
         style="opacity:1;fill:none;stroke:#000000;stroke-width:0.264583px;stroke-linecap:butt;stroke-linejoin:miter;stroke-opacity:1"
         d="m 37.343836,222.14608 0.181986,6.19971 1.916935,-0.88568"
         id="path983" />
      <path
         style="opacity:1;fill:none;stroke:#000000;stroke-width:0.264583px;stroke-linecap:butt;stroke-linejoin:miter;stroke-opacity:1"
         d="m 16.039165,217.07469 1.89267,-0.60662 2.111055,0.92207 c 0,0 1.188985,0.84927 1.286045,0.99486 0.09706,0.14559 0.72795,0.70369 0.82501,0.82501 0.09706,0.12133 0.703685,1.28605 0.752215,1.43164 0.04853,0.14559 0.38824,1.43163 0.38824,1.43163"
         id="path985" />
      <path
         style="opacity:1;fill:none;stroke:#000000;stroke-width:0.865;stroke-linecap:butt;stroke-linejoin:miter;stroke-miterlimit:4;stroke-dasharray:none;stroke-opacity:1"
         d="m 19.55759,216.27395 3.906665,-1.67429 1.9412,-0.63089 0.606625,-0.26691 3.397101,-0.89781 3.00886,0.87354 1.89267,0.67942 1.310309,1.26178 1.407369,4.46476 -0.07279,2.06253 -5.605214,-1.0434 -3.494162,0.9706 -1.358839,0.5581 -0.09706,3.76107 -1.79561,-1.35884 -1.31031,-2.96033 -1.31031,-3.34857 -1.9412,-1.33457 z"
         id="path987" />
      <path
         style="opacity:1;fill:#d4aa00;stroke:#000000;stroke-width:0.264583px;stroke-linecap:butt;stroke-linejoin:miter;stroke-opacity:1"
         d="m 7.8240235,218.90108 c 0,-0.13727 0.4117907,-1.28685 0.4117907,-1.28685 l 0.7549496,-0.0858 c 0,0 1.1324242,0.25737 1.3211622,0.326 0.188737,0.0686 1.561373,0.54906 1.561373,0.54906 l 0.840739,0.85789 c 0,0 1.698637,2.79675 1.784427,3.00265 0.08579,0.20589 2.299164,4.1179 2.299164,4.1179 l 1.389794,1.06379 1.046635,0.30885 4.289486,1.13242 1.029477,0.24021 1.938848,0.70348 c 0,0 1.132425,0.36032 1.252529,0.42895 0.120105,0.0686 0.754949,0.41179 0.978004,0.63484 0.223054,0.22305 0.428947,0.37748 0.514739,0.49758 0.08579,0.12011 0.463264,1.35548 0.463264,1.35548 0,0 -0.01717,2.07611 -0.01717,2.1619 0,0.0858 0.102947,1.63001 0.120105,1.73295 0.01717,0.10295 -0.01714,4.4096 -0.01714,4.4096 l -0.531894,0.25737 -0.223055,-0.10295 -0.03432,-6.41707 -0.154421,-2.29917 c 0,0 -0.497581,-0.87506 -0.703475,-1.04663 -0.205896,-0.17158 -1.475583,-0.75495 -1.630005,-0.82359 -0.154422,-0.0686 -5.01012,-1.33831 -5.01012,-1.33831 0,0 -3.791907,-1.09811 -3.860538,-1.16675 -0.06863,-0.0686 -0.737792,-0.60052 -0.875056,-0.73779 -0.137263,-0.13726 -1.372635,-1.97316 -1.458425,-2.07611 -0.08579,-0.10295 -1.698637,-2.64232 -1.698637,-2.64232 0,0 -1.767268,-3.26001 -1.853058,-3.36296 -0.08579,-0.10295 -1.9388477,-1.14958 -1.9388477,-1.14958 l -1.0123188,0.0858 -0.394633,0.87505 z"
         id="path989" />
      <path
         style="opacity:1;fill:#808080;stroke:#000000;stroke-width:0.264583px;stroke-linecap:butt;stroke-linejoin:miter;stroke-opacity:1"
         d="m -2.0417956,216.19012 3.3457995,0.66916 c 0,0 0.017158,4.78707 0,4.90718 -0.017158,0.1201 -3.2771677,-0.60053 -3.2771677,-0.60053 l -0.1372636,-5.01012 9.4368705,-2.8139 0.652002,0.30884 -0.08579,1.25253 -6.6058093,2.00748 z"
         id="path991" />
      <path
         style="opacity:1;fill:#666666;stroke:#000000;stroke-width:0.264583px;stroke-linecap:butt;stroke-linejoin:miter;stroke-opacity:1"
         d="m 1.3211619,221.66351 6.5028614,-2.76243 0.068632,-3.9978 -6.6058091,2.00748 z"
         id="path993" />
      <path
         style="opacity:1;fill:#999999;stroke:#000000;stroke-width:0.665;stroke-linecap:butt;stroke-linejoin:miter;stroke-miterlimit:4;stroke-dasharray:none;stroke-opacity:1"
         d="m 8.2358142,217.61423 -0.3011591,-8.13448 c 0,0 0.29118,-0.67942 0.29118,-0.80075 0,-0.12132 0.4610349,-1.28604 0.5580949,-1.3831 0.09706,-0.0971 1.35884,-0.70369 1.35884,-0.70369 l 8.39569,1.77135 1.79561,2.839 0.29118,10.40969 c 0,0 -0.558095,0.38824 -0.63089,0.26691 -0.07279,-0.12132 -0.412505,-0.24265 -0.412505,-0.50956 0,-0.26692 -0.14559,-9.53615 -0.14559,-9.53615 l -1.69855,-2.74194 -7.400825,-1.4559 c 0,0 -0.7764799,0.63089 -0.8735399,0.75221 -0.09706,0.12133 -0.4853001,0.77648 -0.4853001,0.77648 l 0.012713,8.36413 z"
         id="path995" />
      <path
         style="opacity:1;fill:#ff6600;stroke:#000000;stroke-width:0.264583px;stroke-linecap:butt;stroke-linejoin:miter;stroke-opacity:1"
         d="m -33.938419,215.57244 c 0,-0.17158 0.06863,-16.88342 0.06863,-16.88342 l 0.892212,-1.26969 2.505062,0.17158 13.177302,2.05895 4.083591,-1.06379 1.647163,-0.82358 0.03432,-3.98065 h 1.6128472 l 0.068632,1.16675 1.0981086,-0.2059 c 0,0 1.2010562,-0.37748 1.4412675,-0.37748 0.2402112,0 1.3726358,1.09811 1.3726358,1.09811 l 0.6176859,1.37264 0.5147384,0.34316 -0.034316,1.304 -5.6621224,1.02948 c 0,0 -1.406952,0.41179 -2.161901,0.68632 -0.75495,0.27452 -1.029477,0.54905 -1.853059,0.61768 -0.823581,0.0686 -1.921689,0.17158 -2.91685,0.2059 -0.995161,0.0343 -4.152223,-0.24021 -4.666962,-0.41179 -0.514738,-0.17158 -6.76023,-1.23538 -7.000442,-1.33832 -0.24021,-0.10295 -2.710956,-0.17158 -2.848219,-0.17158 -0.137263,0 -0.480422,1.26969 -0.480422,1.54421 0,0.27453 0.102946,9.09372 0.102946,9.09372 l -0.06863,5.04443 z"
         id="path997" />
      <path
         style="opacity:1;fill:#ff7f2a;stroke:#000000;stroke-width:0.264583px;stroke-linecap:butt;stroke-linejoin:miter;stroke-opacity:1"
         d="m -32.428518,211.90064 10.466347,-2.53938 -0.446107,1.06379 -10.054557,2.67664 z"
         id="path999" />
      <path
         style="opacity:1;fill:#ff6600;stroke:#000000;stroke-width:0.264583px;stroke-linecap:butt;stroke-linejoin:miter;stroke-opacity:1"
         d="m -29.64893,213.92529 0.137263,-5.04445 c 0,0 -0.137263,-0.61769 0.102947,-0.89222 0.240212,-0.27452 0.343159,-0.30884 0.995161,-0.24021 0.652002,0.0686 6.708757,1.04664 6.708757,1.04664 l 0.154422,-0.56622 0.428948,-0.48042 -5.404753,-1.11526 c 0,0 -1.750111,-0.17158 -2.09327,-0.15443 -0.343159,0.0172 -0.789265,-0.17157 -1.046633,0.0515 -0.257371,0.22305 -0.634844,0.87505 -0.652002,1.13242 -0.01717,0.25737 0.05147,1.21822 0.06863,1.56138 0.01717,0.34316 -0.120105,4.80422 -0.120105,4.80422 z"
         id="path1001" />
      <path
         style="opacity:1;fill:#d45500;stroke:#000000;stroke-width:0.264583px;stroke-linecap:butt;stroke-linejoin:miter;stroke-opacity:1"
         d="m -20.795105,211.73639 1.868405,0.0243 c 0,0 1.35884,0.75222 1.69855,1.21325 0.33971,0.46104 1.06766,1.48017 1.140455,1.84414 0.07279,0.36398 0.315445,1.86841 0.315445,2.014 0,0.14559 0.07279,1.35884 0.07279,1.74708 0,0.38824 -0.63089,2.49929 -0.63089,2.49929 l -0.63089,0.5581 -1.60149,0.80074 0.849275,-1.28604 0.800745,-2.4265 0.04853,-2.06256 -0.703685,-2.62059 -0.92207,-1.3831 z"
         id="path1005" />
      <path
         style="opacity:1;fill:#ff6600;stroke:#000000;stroke-width:0.264583px;stroke-linecap:butt;stroke-linejoin:miter;stroke-opacity:1"
         d="m -18.444792,211.832 c 0.154421,-0.0343 1.286846,-0.60053 1.286846,-0.60053 l 4.375276,1.56138 -3.294326,1.66432 -1.098108,-1.52706 z"
         id="path1007" />
      <path
         style="opacity:1;fill:none;stroke:#000000;stroke-width:0.264583px;stroke-linecap:butt;stroke-linejoin:miter;stroke-opacity:1"
         d="m -12.78267,212.79285 0.892213,1.13242 c 0,0 0.188738,1.44127 0.223054,1.66432 0.03432,0.22306 0.188737,1.3898 0.154421,1.63001 -0.03432,0.24021 -0.137263,1.01232 -0.223053,1.35548 -0.08579,0.34315 -0.66916,1.09811 -0.66916,1.09811 l -3.483063,0.27452 0.274527,-1.47558 c 0,0 -0.137264,-1.56137 -0.137264,-1.64717 0,-0.0858 -0.326001,-2.36779 -0.326001,-2.36779 z"
         id="path1009" />
      <path
         style="opacity:1;fill:#e17f2a;fill-opacity:1;stroke:#000000;stroke-width:0.264583px;stroke-linecap:butt;stroke-linejoin:miter;stroke-opacity:1"
         d="m 112.49254,224.06301 -2.25664,1.38311 -1.4559,2.18385 -0.0728,8.03171 -0.21839,7.7648 0.1456,4.58609 c 0,0 0.43677,0.29118 0.60662,0.36397 0.16985,0.0728 0.43677,0.12133 0.58236,0.0243 0.14559,-0.097 0.31545,-0.31544 0.31545,-0.31544 l 0.65515,-12.59354 -0.16985,-5.92066 c 0,0 0.21838,-1.52869 0.29118,-1.81987 0.0728,-0.29118 1.23751,-1.31031 1.23751,-1.31031 l 0.94634,-0.36398 0.36397,-0.24264 c 0,0 0.0485,-0.31545 0.0243,-0.5581 -0.0243,-0.24265 -0.67942,-1.35884 -0.67942,-1.35884 z"
         id="path1011" />
      <path
         style="opacity:1;fill:#d45500;stroke:#000000;stroke-width:0.264583px;stroke-linecap:butt;stroke-linejoin:miter;stroke-opacity:1"
         d="m 120.31152,233.75986 4.59833,0.78926 -4.35812,3.15707 -9.09371,-1.92169 2.23053,-2.50506 4.94149,0.41179 1.92169,0.10295"
         id="path1023" />
      <path
         style="opacity:1;fill:#cccccc;stroke:#000000;stroke-width:0.264583px;stroke-linecap:butt;stroke-linejoin:miter;stroke-opacity:1"
         d="m 121.40963,218.79813 2.82717,-0.70431 c 0,0 1.9412,0.19412 2.71768,0.29118 0.77648,0.0971 2.4265,0.43677 3.59122,0.92207 1.16472,0.4853 3.44563,1.55296 3.83387,1.79561 0.38824,0.24265 4.41623,3.25151 4.41623,3.25151 l 1.40737,2.62062 0.43677,0.82501 1.65002,3.63975 1.31031,4.3677 -0.19412,3.3971 -18.4963,-4.65525 -4.59833,-0.78926 0.48042,-2.67671 0.61769,-12.28502"
         id="path1029" />
      <path
         style="opacity:1;fill:#ff9955;stroke:#000000;stroke-width:0.264583px;stroke-linecap:butt;stroke-linejoin:miter;stroke-opacity:1"
         d="m 125.04711,228.235 c 0,0 -0.326,0.54905 -0.29168,0.84074 0.0343,0.29168 0.0343,0.51474 0.27452,0.77211 0.24022,0.25737 0.39464,0.27453 0.48043,0.15442 0.0858,-0.12011 0.36031,-0.15442 0.34316,-0.54906 -0.0172,-0.39463 0.0343,-0.85789 -0.0515,-0.96084 -0.0858,-0.10295 -0.75495,-0.25737 -0.75495,-0.25737 z"
         id="path1013" />
      <path
         style="opacity:1;fill:#ff6600;stroke:#000000;stroke-width:0.264583px;stroke-linecap:butt;stroke-linejoin:miter;stroke-opacity:1"
         d="m 125.04711,228.235 c -2e-5,0 -3.1399,-0.73779 -3.1399,-0.73779 0,0 -0.44611,0.30884 -0.48042,0.49758 -0.0343,0.18874 -0.0515,0.36032 0.10294,0.70347 0.15442,0.34316 0.27453,0.5319 0.27453,0.5319 l 3.26001,0.75495 c 0,0 -0.54906,-0.92653 -0.51474,-0.99516 0.0343,-0.0686 0.49756,-0.75495 0.49756,-0.75495"
         id="path1015" />
      <path
         style="opacity:1;fill:#ff6600;stroke:#000000;stroke-width:0.264583px;stroke-linecap:butt;stroke-linejoin:miter;stroke-opacity:1"
         d="m 123.02355,227.58144 c 0,0 0.0728,-0.67942 0,-0.84928 -0.0728,-0.16985 -0.0243,-0.43677 -0.29118,-0.53383 -0.26691,-0.0971 -0.63089,-0.19412 -0.9706,-0.14559 -0.33971,0.0485 -0.77648,0.36398 -0.8978,0.50957 -0.12133,0.14559 -0.82501,0.99486 -0.84928,1.21325 -0.0243,0.21838 0.14559,0.84927 0.16986,1.23751 0.0243,0.38824 -0.0243,0.89781 0.24265,1.40737 0.26691,0.50957 0.67942,0.99487 0.82501,0.9706 0.14559,-0.0243 0.70368,-0.12132 0.87354,-0.38824 0.16985,-0.26691 0.75221,-1.55296 0.75221,-1.55296 z"
         id="path1017" />
      <path
         style="opacity:1;fill:none;stroke:#000000;stroke-width:0.264583px;stroke-linecap:butt;stroke-linejoin:miter;stroke-opacity:1"
         d="m 119.52939,222.58285 3.73681,-1.72282 0.0485,3.27578 -3.59122,1.96546 z"
         id="path1019" />
      <path
         style="opacity:1;fill:#e17f2a;fill-opacity:1;stroke:#000000;stroke-width:0.264583px;stroke-linecap:butt;stroke-linejoin:miter;stroke-opacity:1"
         d="m 123.2662,220.86003 -1.4791,-0.41474 -0.37747,-1.64716 -3.29433,-0.10295 0.0343,1.09811 c 0,0 -0.58337,0.10295 -0.58337,-0.10295 0,-0.20589 -0.10295,-2.23053 -0.10295,-2.23053 0,0 -0.58337,-0.27453 -0.96085,-0.27453 -0.37747,0 -0.89221,-0.0686 -0.92652,0.0686 -0.0343,0.13726 -0.0686,0.4461 0,0.68631 0.0686,0.24021 0,2.40211 0,2.40211 l -0.34316,1.44127 -1.64717,1.13243 0.51474,1.06379 -0.0686,2.74527 -0.72063,1.7158 -1.40695,0.51474 0.99516,1.78442 c 0,0 -0.13727,0.41179 0.58337,0.44611 0.72063,0.0343 0.48042,0.0343 0.92652,0.0686 0.44611,0.0343 1.61285,0.13726 1.61285,0.13726 l 2.60801,0.27453 0.0686,4.49538 1.68148,-0.75495 -0.0343,-3.84338 0.44611,-0.48042 c 0,0 -0.51474,-0.96084 -0.54905,-1.09811 -0.0343,-0.13726 -0.30885,-2.09327 -0.30885,-2.3678 0,-0.27452 0.30885,-0.99516 0.30885,-0.99516 l 1.47558,-0.72063 0.0343,-0.82358 1.56191,-0.94213 z"
         id="path1021" />
      <path
         style="opacity:1;fill:#e17f2a;fill-opacity:1;stroke:#000000;stroke-width:0.264583px;stroke-linecap:butt;stroke-linejoin:miter;stroke-opacity:1"
         d="m 121.68415,237.12282 20.52091,5.25033 15.51744,3.18865 5.72654,1.16472 2.28091,2.57209 c 0,0 0.0728,0.75222 0.0971,0.92207 0.0243,0.16986 0.0728,1.21325 0.0728,1.40737 0,0.19412 -0.0485,1.01913 -0.0485,1.01913 0,0 -1.40737,0.0728 -1.50443,0.0485 -0.0971,-0.0243 -0.67942,-0.24265 -0.67942,-0.33971 0,-0.0971 -0.0243,-2.40223 -0.12133,-2.49929 -0.0971,-0.0971 -0.0243,-0.67942 -1.28604,-0.94634 -1.26178,-0.26691 -16.71859,-3.8824 -16.71859,-3.8824 l -24.87163,-5.96919 -3.00886,-0.50956 0.1456,-1.43164 2.74515,0.58861 z"
         id="path1025" />
      <path
         style="opacity:1;fill:#ff6600;stroke:#000000;stroke-width:0.264583px;stroke-linecap:butt;stroke-linejoin:miter;stroke-opacity:1"
         d="m 123.64016,239.97103 c 0,0 1.26969,0.70348 1.45843,0.8579 0.18873,0.15442 1.01231,0.5319 1.11526,0.82358 0.10295,0.29169 0.326,2.11043 0.326,2.17906 0,0.0686 -0.0686,2.59085 -0.0686,2.59085 l -0.22305,0.5319 c 0,0 -0.30884,0.0343 -0.37748,-0.0171 -0.0686,-0.0515 -0.10294,0.37748 -0.10294,-0.18873 0,-0.56621 -0.22306,-3.24286 -0.22306,-3.32864 0,-0.0858 -0.63484,-1.61285 -0.7721,-1.80159 -0.13727,-0.18874 -1.37264,-1.01232 -1.64717,-1.20106 -0.27452,-0.18873 -1.04663,-0.90937 -1.04663,-0.90937 z"
         id="path1027" />
      <path
         style="opacity:1;fill:#999999;stroke:#000000;stroke-width:0.264583px;stroke-linecap:butt;stroke-linejoin:miter;stroke-opacity:1"
         d="m 121.40963,218.79813 3.21541,-2.25727 c 0,0 1.50443,-0.43677 2.08679,-0.53383 0.58236,-0.0971 1.84414,-0.29118 3.59122,-0.14559 1.74708,0.14559 5.28977,1.4559 5.53242,1.4559 0.24265,0 6.55155,4.31917 6.55155,4.31917 0,0 2.23238,3.63975 2.32944,3.93093 0.0971,0.29118 2.03826,3.59122 2.28091,4.27064 0.24265,0.67942 0.82501,3.8824 0.87354,4.22211 0.0485,0.33971 -0.24265,1.9412 -0.29118,2.57209 -0.0485,0.63089 -0.24265,1.98973 -0.29118,2.23238 -0.0485,0.24265 -0.67942,1.11619 -0.67942,1.11619 l -3.20298,-0.77648 0.19412,-3.3971 -1.31031,-4.3677 -3.49416,-7.08538 -5.58095,-3.93093 -8.97805,-2.32944 z"
         id="path1031" />
      <path
         style="opacity:1;fill:#e6e6e6;stroke:#000000;stroke-width:0.264583px;stroke-linecap:butt;stroke-linejoin:miter;stroke-opacity:1"
         d="m 121.95589,215.81291 7.81333,-3.73681 7.13391,-3.00886 c 0,0 3.15445,0.33971 3.49416,0.33971 0.33971,0 3.59122,0.38824 5.38683,0.77648 1.79561,0.38824 6.16331,1.69855 6.60008,1.9412 0.43677,0.24265 4.90153,6.26037 4.90153,6.26037 l 3.10592,7.52215 c 0,0 0.53383,3.68828 0.53383,3.97946 0,0.29118 -0.24265,3.63975 -0.24265,3.63975 l -10.6281,5.72654 -0.48527,-3.3971 -0.67942,-5.72654 -2.28091,-5.58095 -4.70741,-6.26037 -5.87213,-3.15445 -5.92066,-1.01913 z"
         id="path1035" />
      <path
         style="opacity:1;fill:none;stroke:#000000;stroke-width:0.264583px;stroke-linecap:butt;stroke-linejoin:miter;stroke-opacity:1"
         d="m 71.033898,158.88258 6.931808,1.78443 c 0,0 4.735595,0.48042 5.69644,0.61768 0.960845,0.13727 7.137704,0.34316 8.167182,0.48043 1.029478,0.13726 4.461065,0.13726 6.657282,0 2.19622,-0.13727 4.87286,-0.48043 6.45139,-0.68632 1.57853,-0.2059 5.14738,-0.61769 5.76507,-0.68632 0.61769,-0.0686 4.94149,-0.82358 4.94149,-0.82358"
         id="path1041" />
      <path
         style="opacity:1;fill:none;stroke:#000000;stroke-width:0.264583px;stroke-linecap:butt;stroke-linejoin:miter;stroke-opacity:1"
         d="m 70.950862,162.5755 c 2.622412,0.83678 5.71084,1.45446 7.63253,1.66036 1.921693,0.2059 6.520021,0.54906 8.167185,0.68632 1.647161,0.13726 6.245492,0.13726 8.784868,0.13726 2.539375,0 4.461065,-0.13726 8.167185,-0.41179 3.70611,-0.27453 6.52002,-0.54905 7.68676,-0.75495 1.16674,-0.20589 5.7135,-0.63778 5.7135,-0.63778"
         id="path1043" />
      <path
         style="opacity:1;fill:none;stroke:#000000;stroke-width:0.264583px;stroke-linecap:butt;stroke-linejoin:miter;stroke-opacity:1"
         d="m 76.455809,169.04009 c 0,0 1.372634,0.54905 4.941488,0.75494 3.568853,0.2059 7.206337,0.48043 9.608449,0.48043 2.402113,0 9.402554,-0.27453 10.569294,-0.48043 1.16674,-0.20589 4.04928,-0.61768 5.90233,-0.96084 1.85306,-0.34316 4.59833,-0.68632 5.42192,-1.02948 0.82358,-0.34316 2.8139,-1.02947 2.8139,-1.02947"
         id="path1045" />
      <path
         style="opacity:1;fill:none;stroke:#000000;stroke-width:0.264583px;stroke-linecap:butt;stroke-linejoin:miter;stroke-opacity:1"
         d="m 76.044017,171.57946 c 0,0 2.608008,0.48042 4.323802,0.89222 1.715796,0.41179 4.666961,1.16673 6.314125,1.92169 1.647163,0.75494 2.745272,0.96084 4.186539,2.47074 1.441267,1.5099 5.627806,5.90233 6.314125,6.79455 0.686316,0.89221 2.539376,4.3238 3.019802,5.35328 0.48042,1.02947 4.39243,8.85349 4.39243,8.85349"
         id="path1047" />
      <path
         style="opacity:1;fill:none;stroke:#000000;stroke-width:0.264583px;stroke-linecap:butt;stroke-linejoin:miter;stroke-opacity:1"
         d="m 91.486169,174.53063 c 0,0 8.578971,3.98064 10.088871,4.66696 1.5099,0.68632 5.55918,4.39243 6.72592,5.14738 1.16674,0.75495 3.70611,3.29433 4.39243,4.04928 0.68632,0.75495 2.67664,2.8139 2.88254,3.29432 0.20589,0.48043 0.48042,1.02948 0.48042,1.02948"
         id="path1049" />
      <path
         style="opacity:1;fill:none;stroke:#000000;stroke-width:0.264583px;stroke-linecap:butt;stroke-linejoin:miter;stroke-opacity:1"
         d="m 118.66436,170.61862 c 0,0 4.59832,9.47118 4.52969,10.02024 -0.0686,0.54905 0.27453,4.73559 0.41179,5.97096 0.13727,1.23537 0.13727,4.66696 0.13727,4.94149"
         id="path1051" />
      <path
         style="opacity:1;fill:none;stroke:#000000;stroke-width:0.264583px;stroke-linecap:butt;stroke-linejoin:miter;stroke-opacity:1"
         d="M 95.878604,201.15976 138.08715,187.50204"
         id="path1053" />
      <path
         style="opacity:1;fill:#ff6600;stroke:#000000;stroke-width:0.264583px;stroke-linecap:butt;stroke-linejoin:miter;stroke-opacity:1"
         d="m 36.518826,238.33083 c 0,0 0.145589,-0.82501 0.266914,-1.14045 0.121325,-0.31545 0.703686,-0.82501 0.9706,-1.01913 0.266914,-0.19412 1.188985,-0.29118 1.310309,-0.26692 0.121325,0.0243 0.752216,0.0485 1.091925,0.36398 0.339712,0.31544 0.582361,0.55809 0.776481,0.80074 0.194119,0.24265 0.339709,0.53383 0.412506,0.82501 0.07279,0.29118 0.169855,0.41251 0.14559,0.82501 -0.02426,0.41251 0.14559,0.70369 -0.14559,1.11619 -0.291181,0.41251 -0.533831,1.21325 -0.67942,1.33458 -0.14559,0.12132 -0.33971,0.33971 -0.946336,0.4125 -0.606626,0.0728 -1.528696,0.14559 -1.650021,0.12133 -0.121324,-0.0243 -0.825008,-0.16986 -0.825008,-0.16986 l -0.194122,-0.26691 z"
         id="path963" />
      <path
         style="opacity:1;fill:#d45500;stroke:#000000;stroke-width:0.264583px;stroke-linecap:butt;stroke-linejoin:miter;stroke-opacity:1"
         d="m 38.023254,238.06392 -2.839002,1.16472 c 0,0 -0.412507,0.84927 -0.412507,0.94633 0,0.0971 0.218384,0.80075 0.533831,0.9706 0.315444,0.16986 0.04853,0.29118 0.485299,0.21839 0.436771,-0.0728 0.9706,-0.14559 1.140455,-0.24265 0.169854,-0.0971 2.377971,-1.16472 2.377971,-1.16472 l 0.14559,-1.11619 -0.266917,-0.92207 z"
         id="path961" />
      <path
         style="opacity:1;fill:#ff6600;stroke:#000000;stroke-width:0.264583px;stroke-linecap:butt;stroke-linejoin:miter;stroke-opacity:1"
         d="m 36.664415,234.59402 1.140455,-1.11619 v -2.20811 l 1.868406,-0.80075 3.084327,-3.77816 1.259107,1.42446 1.79561,0.21838 1.028872,-0.51041 1.810134,1.1413 3.033125,-0.65515 0.800743,0.46103 0.727951,1.40737 2.984595,3.17872 -0.703686,0.70368 -1.334574,0.43677 -1.98973,-0.50956 c 0,0 -1.725388,-0.63933 -1.725388,-0.63933 l -0.480422,0.29168 v 0.60053 l 1.08962,0.49933 0.776481,0.19412 0.02127,4.65983 -9.800068,3.51748 0.05435,-1.28695 -0.491122,-0.62999 0.04853,-5.65374 z"
         id="path971" />
      <path
         style="opacity:1;fill:none;stroke:#000000;stroke-width:0.264583px;stroke-linecap:butt;stroke-linejoin:miter;stroke-opacity:1"
         d="m 72.892059,152.96656 6.988321,1.06766 c 0,0 11.550141,1.06766 11.93838,1.06766 0.388239,0 5.920661,0.4853 8.44422,0.58236 2.52356,0.0971 4.56182,0.19412 6.01772,0.19412 1.4559,0 4.17358,0.29118 4.65888,0.19412 0.4853,-0.0971 2.81474,-0.38824 2.81474,-0.38824"
         id="path1055" />
      <path
         style="opacity:1;fill:none;stroke:#000000;stroke-width:0.264583px;stroke-linecap:butt;stroke-linejoin:miter;stroke-opacity:1"
         d="m 73.57148,149.76358 c 0,0 7.861861,1.06766 9.2207,1.16472 1.358842,0.0971 3.97946,0.38824 6.600081,0.58236 2.620619,0.19412 4.950061,0.58236 7.37656,0.67942 2.426499,0.0971 4.367699,0.19412 6.600079,0.38824 2.23238,0.19412 4.27064,0.38824 5.53242,0.4853 1.26178,0.0971 3.78534,0.19412 3.78534,0.19412"
         id="path1057" />
      <path
         style="opacity:1;fill:none;stroke:#000000;stroke-width:0.264583px;stroke-linecap:butt;stroke-linejoin:miter;stroke-opacity:1"
         d="m 78.424481,127.73096 6.308899,-2.03826 c 0,0 2.426499,-0.4853 4.853001,-0.38824 2.426499,0.0971 10.28836,2.4265 10.28836,2.4265 0,0 5.629479,1.4559 6.017719,1.55296 0.38824,0.0971 8.2501,4.56182 8.2501,4.56182 l 4.95006,5.62948"
         id="path1059" />
      <path
         style="opacity:1;fill:none;stroke:#000000;stroke-width:0.264583px;stroke-linecap:butt;stroke-linejoin:miter;stroke-opacity:1"
         d="m 90.662587,109.67359 c 0,0 7.412233,-0.13726 7.961288,-0.0686 0.549053,0.0686 3.637485,0.61769 5.078755,1.02948 1.44126,0.41179 10.91245,6.31412 10.91245,6.31412 l 5.01012,4.80423 2.67664,6.03959 1.23537,5.49055 -0.34316,2.53937"
         id="path1061" />
      <path
         style="opacity:1;fill:none;stroke:#000000;stroke-width:0.264583px;stroke-linecap:butt;stroke-linejoin:miter;stroke-opacity:1"
         d="m 95.123652,106.92832 c 0,0 6.176858,0.0686 6.863178,0.2059 0.68632,0.13726 9.53982,3.63748 9.53982,3.63748 l 8.37308,7.75539 3.36295,6.86318 0.4118,3.70612 0.75495,5.42191 -0.19263,0.92893"
         id="path1063" />
      <path
         style="opacity:1;fill:none;stroke:#000000;stroke-width:0.264583px;stroke-linecap:butt;stroke-linejoin:miter;stroke-opacity:1"
         d="m 128.16773,134.86487 c 0,0 1.31031,-2.76621 1.4559,-3.00886 0.14559,-0.24265 1.01913,-2.18385 1.16472,-2.81474 0.14559,-0.63089 0.38824,-3.05739 0.38824,-3.8824 0,-0.82501 0.53383,-1.79561 -0.14559,-4.17358 -0.67942,-2.37797 -0.38824,-4.90153 -1.11619,-6.40596 -0.72795,-1.50443 -1.01913,-3.10592 -1.40737,-3.78534 -0.38824,-0.67942 -1.40737,-1.55296 -1.40737,-1.55296 l -5.28977,-5.09565 c 0,0 -3.93093,-1.65002 -4.3677,-1.79561 -0.43677,-0.14559 -3.34857,-0.38824 -4.07652,-0.53383 -0.72795,-0.14559 -3.49416,-0.33971 -3.49416,-0.33971"
         id="path1065" />
      <path
         style="opacity:1;fill:none;stroke:#000000;stroke-width:0.264583px;stroke-linecap:butt;stroke-linejoin:miter;stroke-opacity:1"
         d="m 141.2223,106.2807 63.86548,-1.55296 15.72372,-0.38824 7.66774,-0.19412 2.52356,-0.14559 0.33971,0.72795 c 0,0 0.53383,0.63089 -0.77648,0.92207 -1.31031,0.29118 -25.47825,0.24265 -25.47825,0.24265 l -19.99436,0.4853 -43.62847,1.01913"
         id="path1067" />
      <path
         style="opacity:1;fill:none;stroke:#000000;stroke-width:0.264583px;stroke-linecap:butt;stroke-linejoin:miter;stroke-opacity:1"
         d="m 141.51874,131.22397 82.7013,-9.74571 6.17686,-0.68632 c 0,0 0.27453,0 0.2059,0.48042 -0.0686,0.48043 0.0686,0.89222 -0.89222,0.96085 -0.96084,0.0686 -21.96217,2.33348 -21.96217,2.33348 l -14.6872,1.64716 -51.67973,6.10823"
         id="path1069" />
      <path
         style="opacity:1;fill:none;stroke:#000000;stroke-width:0.264583px;stroke-linecap:butt;stroke-linejoin:miter;stroke-opacity:1"
         d="m 153.59793,105.59 0.8579,0.44611 c 0,0 0.0343,0.41179 0,0.54905 -0.0343,0.13726 -0.27452,0.652 -0.41179,0.75495 -0.13726,0.10295 -0.54905,0.34316 -0.54905,0.34316 l 0.0686,0.27453 2.67664,-0.17158 c 0,0 0.75495,-0.51474 0.85789,-0.82358 0.10295,-0.30885 0.17158,-0.72064 0.10295,-0.96085 -0.0686,-0.24021 -0.30884,-0.48042 -0.4461,-0.61768 -0.13727,-0.13727 -3.15707,0.20589 -3.15707,0.20589 z"
         id="path1071" />
      <path
         style="opacity:1;fill:none;stroke:#000000;stroke-width:0.264583px;stroke-linecap:butt;stroke-linejoin:miter;stroke-opacity:1"
         d="m 179.73086,104.72774 c 0,0 -0.0728,-0.0728 0.36397,-0.14559 0.43677,-0.0728 0.60663,-0.0971 0.77648,0.0485 0.16986,0.14559 0.43677,0.31545 0.4853,0.53383 0.0485,0.21838 0.0971,1.11619 0.0971,1.21325 0,0.0971 -0.0728,0.46104 -0.24265,0.53383 -0.16985,0.0728 -0.4853,0.19412 -0.80074,0.24265 -0.31545,0.0485 -0.58236,0.0485 -0.58236,0.0485 l 1.72281,0.31544 c 0,0 0.4853,-0.0485 0.58236,-0.36397 0.0971,-0.31544 0.31545,-0.4853 0.21839,-1.14045 -0.0971,-0.65516 -0.0971,-1.38311 -0.33971,-1.57723 -0.24265,-0.19412 -0.29118,-0.26691 -0.5581,-0.31544 -0.26691,-0.0485 -1.09192,-0.0485 -1.09192,-0.0485 z"
         id="path1073" />
      <path
         style="opacity:1;fill:none;stroke:#000000;stroke-width:0.264583px;stroke-linecap:butt;stroke-linejoin:miter;stroke-opacity:1"
         d="m 210.74153,104.09685 0.99486,-0.0971 c 0,0 0.26692,0.29118 0.31545,0.38824 0.0485,0.0971 0.19412,0.46104 0.19412,0.63089 0,0.16986 -0.0243,0.58236 -0.12133,0.77648 -0.0971,0.19412 -0.0243,0.33971 -0.21838,0.4853 -0.19412,0.14559 -0.16986,0.19412 -0.31545,0.19412 -0.14559,0 -0.46103,0.0243 -0.46103,0.0243 l 1.4559,0.0243 0.43677,-1.31031 -0.4853,-1.26178 c 0,0 -0.21839,-0.12132 -0.38824,-0.14559 -0.16986,-0.0243 -1.40737,0.29118 -1.40737,0.29118 z"
         id="path1075" />
      <path
         style="opacity:1;fill:none;stroke:#000000;stroke-width:0.264583px;stroke-linecap:butt;stroke-linejoin:miter;stroke-opacity:1"
         d="m 211.51801,122.45332 c 0,0 0.42463,0.12133 0.47317,0.27905 0.0485,0.15772 0.14559,0.4489 0.19411,0.5581 0.0485,0.10919 0,1.06766 0,1.06766 l -0.29118,0.30331 -0.33971,0.26691 0.0607,0.13346 c 0,0 0.70368,0.0607 0.82501,-0.0364 0.12132,-0.0971 0.29118,-0.19412 0.32757,-0.31544 0.0364,-0.12133 0.0607,-0.74008 0.0728,-0.95847 0.0121,-0.21838 -0.0364,-0.70368 -0.0849,-0.88567 -0.0485,-0.18199 -0.19412,-0.41251 -0.31544,-0.50957 -0.12133,-0.0971 -0.26692,-0.13345 -0.35184,-0.14559 -0.0849,-0.0121 -0.57023,0.24265 -0.57023,0.24265 z"
         id="path1077" />
      <path
         style="opacity:1;fill:none;stroke:#000000;stroke-width:0.264583px;stroke-linecap:butt;stroke-linejoin:miter;stroke-opacity:1"
         d="m 217.57992,121.85573 c 0.0686,-0.0172 0.326,-0.0343 0.4461,0.10295 0.12011,0.13726 0.42895,0.51474 0.46327,0.652 0.0343,0.13727 0.0858,0.58337 0.0171,0.75495 -0.0686,0.17158 -0.1201,0.27453 -0.22305,0.41179 -0.10295,0.13727 -0.27453,0.29169 -0.27453,0.29169 l 0.89221,-0.17158 c 0,0 0.17158,-0.13726 0.22306,-0.326 0.0515,-0.18874 0.0686,-0.56621 0.0686,-0.8579 0,-0.29169 -0.10295,-0.60053 -0.2059,-0.75495 -0.10294,-0.15442 -0.48042,-0.326 -0.48042,-0.326 z"
         id="path1079" />
      <path
         style="opacity:1;fill:none;stroke:#000000;stroke-width:0.264583px;stroke-linecap:butt;stroke-linejoin:miter;stroke-opacity:1"
         d="m 153.04888,129.23365 c 0,0 0.36032,0.12011 0.44611,0.30884 0.0858,0.18874 0.27452,0.56622 0.27452,0.77211 0,0.2059 -0.326,0.96085 -0.36031,1.08095 -0.0343,0.12011 -0.27453,0.51474 -0.27453,0.51474 0,0 1.11527,-0.0858 1.33832,-0.0858 0.22305,0 1.38979,-0.326 1.38979,-0.326 0,0 0.15442,-0.0515 0.17158,-0.12011 0.0172,-0.0686 0.37748,-1.37263 0.326,-1.73295 -0.0515,-0.36031 -0.42894,-0.94369 -0.652,-1.02948 -0.22305,-0.0858 -2.72811,0.54906 -2.72811,0.54906"
         id="path1081" />
      <path
         style="opacity:1;fill:none;stroke:#000000;stroke-width:0.264583px;stroke-linecap:butt;stroke-linejoin:miter;stroke-opacity:1"
         d="m 186.93756,125.25593 c 0,0 0.46104,0.10919 0.53383,0.21839 0.0728,0.10919 0.41251,0.3761 0.46104,0.58236 0.0485,0.20625 0.0364,0.61875 -0.0364,0.84927 -0.0728,0.23052 -0.0607,0.38824 -0.18199,0.53383 -0.12132,0.14559 -0.30331,0.38824 -0.30331,0.38824 0,0 0.69155,-0.0243 0.8978,-0.0485 0.20626,-0.0243 0.71582,-0.10919 0.80075,-0.14559 0.0849,-0.0364 0.27905,-0.0485 0.32758,-0.16985 0.0485,-0.12133 0.52169,-1.17686 0.4853,-1.32245 -0.0364,-0.14559 -0.21839,-0.66728 -0.33971,-0.87354 -0.12133,-0.20625 0.0364,-0.29118 -0.26692,-0.36397 -0.30331,-0.0728 -2.37797,0.35184 -2.37797,0.35184 z"
         id="path1083" />
      <path
         style="opacity:1;fill:none;stroke:#000000;stroke-width:0.264583px;stroke-linecap:butt;stroke-linejoin:miter;stroke-opacity:1"
         d="m 165.68142,143.11497 c 0,0 -1.21325,-0.29118 -1.98973,0.14559 -0.77648,0.43677 -0.77648,0.58236 -0.77648,0.58236 0,0 0.72795,0.43677 1.26178,0.4853 0.53383,0.0485 1.31031,0.19412 2.32944,0.19412 1.01913,0 2.71768,0.0971 3.34857,0 0.63089,-0.0971 1.98973,-0.19412 2.4265,-0.29118 0.43677,-0.0971 0.92207,-0.29118 0.92207,-0.29118 0,0 -1.11619,-0.58236 -1.84414,-0.67942 -0.72795,-0.0971 -2.23238,-0.0971 -2.86327,-0.24265 -0.63089,-0.14559 -3.10592,-0.0971 -3.10592,-0.0971"
         id="path1085" />
      <path
         style="opacity:1;fill:none;stroke:#000000;stroke-width:0.264583px;stroke-linecap:butt;stroke-linejoin:miter;stroke-opacity:1"
         d="m 163.37796,143.09727 -1.956,0.41179 c 0,0 -0.48043,0.54906 0.10295,0.72064 0.58336,0.17158 1.20105,0.48042 1.99032,0.54905 0.78926,0.0686 1.23537,0.0343 2.36779,0.10295 1.13243,0.0686 1.5099,0.0343 2.53938,0.0686 1.02948,0.0343 1.88737,0.10295 2.53938,-0.0343 0.652,-0.13726 2.71095,-0.34316 2.71095,-0.34316 0,0 0.41179,-0.24021 0.41179,-0.37747 0,-0.13726 -0.88095,-0.2554 -0.88095,-0.2554"
         id="path1087" />
      <path
         style="opacity:1;fill:none;stroke:#000000;stroke-width:0.264583px;stroke-linecap:butt;stroke-linejoin:miter;stroke-opacity:1"
         d="m 161.04448,144.26401 -0.0343,2.09327"
         id="path1089" />
      <path
         style="opacity:1;fill:none;stroke:#000000;stroke-width:0.264583px;stroke-linecap:butt;stroke-linejoin:miter;stroke-opacity:1"
         d="m 173.67273,144.57284 c 0.58337,0.58339 0.652,8.75057 0.652,8.75057"
         id="path1091" />
      <path
         style="opacity:1;fill:none;stroke:#000000;stroke-width:0.264583px;stroke-linecap:butt;stroke-linejoin:miter;stroke-opacity:1"
         d="m 201.90907,137.04872 -2.08679,0.16986 c 0,0 -0.33971,0.16985 -0.0243,0.26691 0.31545,0.0971 1.31031,0.12133 1.91694,0.12133 0.60662,0 2.81474,-0.0485 3.44563,-0.0485 0.63089,0 2.98459,0.12132 3.25151,0.12132 0.26691,0 0.75221,-0.0243 0.75221,-0.0243 0,0 -0.46103,-0.38824 -0.72795,-0.41251 -0.26691,-0.0243 -3.25151,-0.19412 -3.59122,-0.19412 -0.3397,0 -2.93606,0 -2.93606,0 z"
         id="path1093" />
      <path
         style="opacity:1;fill:none;stroke:#000000;stroke-width:0.264583px;stroke-linecap:butt;stroke-linejoin:miter;stroke-opacity:1"
         d="m 199.16712,137.24284 -0.82501,0.4853 c 0,0 0.12133,0.21839 1.21325,0.29118 1.09193,0.0728 1.5287,0.21839 2.23238,0.21839 0.70369,0 1.9412,0 1.9412,0 l 0.70369,-0.0728"
         id="path1095" />
      <path
         style="opacity:1;fill:none;stroke:#000000;stroke-width:0.264583px;stroke-linecap:butt;stroke-linejoin:miter;stroke-opacity:1"
         d="m 198.34211,137.72814 0.0243,1.72282"
         id="path1097" />
      <path
         style="opacity:1;fill:none;stroke:#000000;stroke-width:0.264583px;stroke-linecap:butt;stroke-linejoin:miter;stroke-opacity:1"
         d="m 209.96505,138.04358 -0.0243,6.76994"
         id="path1099" />
      <path
         style="opacity:1;fill:none;stroke:#000000;stroke-width:0.264583px;stroke-linecap:butt;stroke-linejoin:miter;stroke-opacity:1"
         d="m 228.67336,132.02587 -1.40737,0.16985 c 0,0 -0.9706,0.12133 -0.0485,0.21839 0.92207,0.0971 0.58236,0.12132 2.15959,0.12132 1.57722,0 1.79561,0.0485 2.9118,0.0728 1.11619,0.0243 0.87354,0.14559 1.50443,0.0243 0.63089,-0.12133 1.11619,-0.0728 1.11619,-0.0728 0,0 -0.99487,-0.31544 -1.09193,-0.36397 -0.0971,-0.0485 -1.98973,-0.0971 -2.23238,-0.0971 -0.24265,0 -2.9118,-0.0728 -2.9118,-0.0728 z"
         id="path1101" />
      <path
         style="opacity:1;fill:none;stroke:#000000;stroke-width:0.264583px;stroke-linecap:butt;stroke-linejoin:miter;stroke-opacity:1"
         d="m 226.34392,132.19572 c 0,0 -0.26691,0 -0.26691,0.14559 0,0.14559 -0.0243,0.38824 -0.0243,0.38824 0,0 0.5581,0.38824 1.5287,0.41251 0.9706,0.0243 3.05739,0.19412 3.4699,0.21838 0.4125,0.0243 2.40223,-0.12132 2.40223,-0.12132"
         id="path1103" />
      <path
         style="opacity:1;fill:none;stroke:#000000;stroke-width:0.264583px;stroke-linecap:butt;stroke-linejoin:miter;stroke-opacity:1"
         d="m 226.05271,132.72955 3e-5,1.57723"
         id="path1105" />
      <path
         style="opacity:1;fill:none;stroke:#000000;stroke-width:0.264583px;stroke-linecap:butt;stroke-linejoin:miter;stroke-opacity:1"
         d="m 235.63742,132.92367 v 6.09052"
         id="path1107" />
      <path
         style="opacity:1;fill:none;stroke:#000000;stroke-width:0.264583px;stroke-linecap:butt;stroke-linejoin:miter;stroke-opacity:1"
         d="m 128.6045,166.9432 22.71204,3.05739 c 0,0 0.92207,0.33971 1.06766,0.63089 0.14559,0.29118 -0.0485,14.60753 -0.0485,14.60753"
         id="path1109" />
      <path
         style="opacity:1;fill:none;stroke:#000000;stroke-width:0.264583px;stroke-linecap:butt;stroke-linejoin:miter;stroke-opacity:1"
         d="m 134.47663,172.57268 17.56786,2.66915"
         id="path1111" />
      <path
         style="opacity:1;fill:none;stroke:#000000;stroke-width:0.264583px;stroke-linecap:butt;stroke-linejoin:miter;stroke-opacity:1"
         d="m 138.16491,168.54469 c -0.24265,2.76621 -0.14559,9.94865 -0.14559,9.94865"
         id="path1113" />
      <path
         style="opacity:1;fill:none;stroke:#000000;stroke-width:0.264583px;stroke-linecap:butt;stroke-linejoin:miter;stroke-opacity:1"
         d="m 137.48549,177.32862 c 1.26178,0.24265 14.12223,2.08679 14.12223,2.08679"
         id="path1115" />
      <path
         style="opacity:1;fill:none;stroke:#000000;stroke-width:0.264583px;stroke-linecap:butt;stroke-linejoin:miter;stroke-opacity:1"
         d="m 167.23438,170.19471 c 0,0 -3.10592,1.06766 -3.49416,1.11619 -0.38824,0.0485 -0.33971,0.0485 -0.82501,0.0485 -0.4853,0 -0.4853,-0.24265 -0.77648,-0.0485 -0.29118,0.19412 -0.77648,14.85018 -0.77648,14.85018"
         id="path1117" />
      <path
         style="opacity:1;fill:none;stroke:#000000;stroke-width:0.264583px;stroke-linecap:butt;stroke-linejoin:miter;stroke-opacity:1"
         d="m 166.4579,170.87413 -0.29118,14.26782"
         id="path1119" />
      <path
         style="opacity:1;fill:none;stroke:#000000;stroke-width:0.264583px;stroke-linecap:butt;stroke-linejoin:miter;stroke-opacity:1"
         d="m 162.04167,176.01831 1.16472,0.29118 3.59122,-1.26178"
         id="path1121" />
      <path
         style="opacity:1;fill:none;stroke:#000000;stroke-width:0.264583px;stroke-linecap:butt;stroke-linejoin:miter;stroke-opacity:1"
         d="m 161.99314,180.48307 1.11619,0.24265 3.49416,-1.40737"
         id="path1123" />
      <path
         style="opacity:1;fill:none;stroke:#000000;stroke-width:0.264583px;stroke-linecap:butt;stroke-linejoin:miter;stroke-opacity:1"
         d="m 160.24606,171.06825 -0.63089,33.53423"
         id="path1125" />
      <path
         style="opacity:1;fill:none;stroke:#000000;stroke-width:0.264583px;stroke-linecap:butt;stroke-linejoin:miter;stroke-opacity:1"
         d="m 140.93112,183.63752 20.43113,2.52356 2.28091,0.38824 2.71768,-2.81474 -25.38119,-3.30004 -1.79561,-0.33971 z"
         id="path1127" />
      <path
         style="opacity:1;fill:none;stroke:#000000;stroke-width:0.264583px;stroke-linecap:butt;stroke-linejoin:miter;stroke-opacity:1"
         d="m 153.3548,170.09765 -0.53383,34.26218"
         id="path1129" />
      <path
         style="opacity:1;fill:none;stroke:#000000;stroke-width:0.264583px;stroke-linecap:butt;stroke-linejoin:miter;stroke-opacity:1"
         d="m 151.26801,194.79942 c -0.19412,0.0971 -10.77366,3.68828 -10.96778,3.73681 -0.19412,0.0485 -2.37797,0.24265 -1.35884,0.82501 1.01913,0.58236 38.87253,5.62948 38.87253,5.62948 0,0 2.52356,0.77648 2.03826,1.06766 -0.4853,0.29118 -29.65183,16.5002 -29.65183,16.5002 l -16.9855,-2.13532 -0.4853,12.6178"
         id="path1131" />
      <path
         style="opacity:1;fill:none;stroke:#000000;stroke-width:0.264583px;stroke-linecap:butt;stroke-linejoin:miter;stroke-opacity:1"
         d="m 136.02959,221.05415 -0.0971,15.5296"
         id="path1133" />
      <path
         style="opacity:1;fill:#b3b3b3;stroke:#000000;stroke-width:0.264583px;stroke-linecap:butt;stroke-linejoin:miter;stroke-opacity:1"
         d="m 170.7902,212.82716 -6.52002,-0.92652 c 0,0 -1.85306,0.72063 -2.12759,0.92652 -0.27453,0.2059 0.17158,-1.44126 -1.16674,1.5099 -1.33832,2.95117 -2.33348,6.07392 -2.33348,6.07392 l 0.41179,2.05895 1.33749,3.43722 0.65283,3.87207 -0.36165,3.74714 4.7884,-2.58041 -0.48042,-1.54421 0.61769,-6.82886 2.09326,-6.27981 z"
         id="path1177" />
      <path
         style="opacity:1;fill:none;stroke:#000000;stroke-width:0.264583px;stroke-linecap:butt;stroke-linejoin:miter;stroke-opacity:1"
         d="m 133.16632,225.95568 16.25755,3.00886 21.93556,-11.35602"
         id="path1135" />
      <path
         style="opacity:1;fill:none;stroke:#000000;stroke-width:0.264583px;stroke-linecap:butt;stroke-linejoin:miter;stroke-opacity:1"
         d="m 171.69914,212.17316 -0.0485,15.86931"
         id="path1137" />
      <path
         style="opacity:1;fill:none;stroke:#000000;stroke-width:0.264583px;stroke-linecap:butt;stroke-linejoin:miter;stroke-opacity:1"
         d="m 132.72955,233.04106 17.22815,2.52356 20.67378,-11.84132"
         id="path1139" />
      <path
         style="opacity:1;fill:#e6e6e6;stroke:#000000;stroke-width:0.264583px;stroke-linecap:butt;stroke-linejoin:miter;stroke-opacity:1"
         d="m 175.38852,221.06298 c 0,0 -0.51473,-4.15222 -0.61768,-4.3238 -0.10295,-0.17158 -1.23537,-2.29917 -1.81874,-2.77959 -0.58337,-0.48042 -1.13243,-1.13243 -2.12759,-0.89221 -0.99516,0.24021 -3.12275,3.22569 -3.12275,3.22569 l -2.09326,6.27981 -0.61769,6.82886 0.48042,1.54421 6.17941,-2.90348 z"
         id="path1175" />
      <path
         style="opacity:1;fill:none;stroke:#000000;stroke-width:0.264583px;stroke-linecap:butt;stroke-linejoin:miter;stroke-opacity:1"
         d="m 150.05473,239.2529 21.59591,-11.21043"
         id="path1141" />
      <path
         style="opacity:1;fill:none;stroke:#000000;stroke-width:0.264583px;stroke-linecap:butt;stroke-linejoin:miter;stroke-opacity:1"
         d="m 175.96978,209.45548 25.76943,2.86327 c 0,0 0.38824,6.35743 0.29118,6.98832 -0.0971,0.63089 -0.43677,4.80447 -0.43677,4.80447 l -9.65747,-1.35884 -16.64579,-2.66915"
         id="path1143" />
      <path
         style="opacity:1;fill:none;stroke:#000000;stroke-width:0.264583px;stroke-linecap:butt;stroke-linejoin:miter;stroke-opacity:1"
         d="m 175.72713,214.5026 c 1.35884,-0.0485 26.06061,3.73681 26.06061,3.73681"
         id="path1145" />
      <path
         style="opacity:1;fill:none;stroke:#000000;stroke-width:0.264583px;stroke-linecap:butt;stroke-linejoin:miter;stroke-opacity:1"
         d="m 198.77888,212.12463 -0.19412,17.22815"
         id="path1147" />
      <path
         style="opacity:1;fill:#cccccc;stroke:#000000;stroke-width:0.264583px;stroke-linecap:butt;stroke-linejoin:miter;stroke-opacity:1"
         d="m 172.60894,223.08762 c 1.06379,0.24021 2.84822,0.51473 2.84822,0.51473 l 1.20105,-0.85789 -2.67664,-0.8579 -1.50989,1.09811 0.10294,3.60317 3.19138,0.58337 -0.17158,-3.63749 0.99516,-0.82358 0.27453,3.74043 -1.09811,0.61769 -0.24021,-3.6718 c 0,0 -2.84822,-0.41179 -2.91685,-0.30884 z"
         id="path1149" />
      <path
         style="opacity:1;fill:#666666;stroke:#000000;stroke-width:0.264583px;stroke-linecap:butt;stroke-linejoin:miter;stroke-opacity:1"
         d="m 79.406974,237.19145 v 17.36384 l 0.754951,0.34316 -0.06863,-18.66785 z"
         id="path1151" />
      <path
         style="opacity:1;fill:#666666;stroke:#000000;stroke-width:0.264583px;stroke-linecap:butt;stroke-linejoin:miter;stroke-opacity:1"
         d="m 88.603634,232.59312 v 18.05016 h 0.480422 l 0.205896,-18.53058 z"
         id="path1153" />
      <path
         style="opacity:1;fill:#cccccc;stroke:#000000;stroke-width:0.264583px;stroke-linecap:butt;stroke-linejoin:miter;stroke-opacity:1"
         d="m 76.249913,255.6534 24.570177,-12.69688 1.09811,-0.75495 2.67664,1.37263 -34.453156,16.95205"
         id="path1155" />
      <path
         style="opacity:1;fill:#cccccc;stroke:#000000;stroke-width:0.264583px;stroke-linecap:butt;stroke-linejoin:miter;stroke-opacity:1"
         d="m 104.59484,243.5742 -0.13726,2.26485 -33.355051,16.403"
         id="path1157" />
      <path
         style="opacity:1;fill:none;stroke:#000000;stroke-width:0.264583px;stroke-linecap:butt;stroke-linejoin:miter;stroke-opacity:1"
         d="m 69.249472,247.82937 1.029475,0.27453 34.075683,-15.61373"
         id="path1159" />
      <path
         style="opacity:1;fill:#c8b7b7;stroke:#000000;stroke-width:0.264583px;stroke-linecap:butt;stroke-linejoin:miter;stroke-opacity:1"
         d="m 118.24335,240.17497 c -0.38824,0.31545 -1.50443,0.92207 -1.50443,0.92207 l 2.76621,0.70369 1.91693,-1.06766 z"
         id="path1163" />
      <path
         style="opacity:1;fill:#c8b7b7;stroke:#000000;stroke-width:0.264583px;stroke-linecap:butt;stroke-linejoin:miter;stroke-opacity:1"
         d="m 116.73892,241.09704 -0.0971,4.22211 2.86328,0.65516 v -4.17358 l -2.76621,-0.70369"
         id="path1165" />
      <path
         style="opacity:1;fill:#c8b7b7;stroke:#000000;stroke-width:0.264583px;stroke-linecap:butt;stroke-linejoin:miter;stroke-opacity:1"
         d="m 121.42206,240.73307 -0.0485,4.27064 -1.86843,0.9706 3e-5,-4.17358 1.91693,-1.06766"
         id="path1167" />
      <path
         style="opacity:1;fill:#c8b7b7;stroke:#000000;stroke-width:0.264583px;stroke-linecap:butt;stroke-linejoin:miter;stroke-opacity:1"
         d="m 113.63299,239.18011 -1.62575,0.77648 3.03313,0.65515 1.72281,-0.80074 z"
         id="path1169" />
      <path
         style="opacity:1;fill:#c8b7b7;stroke:#000000;stroke-width:0.264583px;stroke-linecap:butt;stroke-linejoin:miter;stroke-opacity:1"
         d="m 112.00724,239.95659 -0.12132,4.2949 3.37283,0.63089 -0.21838,-4.27064 z"
         id="path1171" />
      <path
         style="opacity:1;fill:#c8b7b7;stroke:#000000;stroke-width:0.264583px;stroke-linecap:butt;stroke-linejoin:miter;stroke-opacity:1"
         d="m 116.76318,239.811 -0.0243,1.28604 0.0485,2.86327 -1.52869,0.92207 -0.21838,-4.27064 1.72281,-0.80074"
         id="path1173" />
      <path
         style="opacity:1;fill:#cccccc;stroke:#000000;stroke-width:0.264583px;stroke-linecap:butt;stroke-linejoin:miter;stroke-opacity:1"
         d="m 132.66524,210.63095 c 0.0343,-0.13727 0.99516,-2.77959 1.16674,-2.95117 0.17158,-0.17158 1.75011,-1.68148 1.92169,-1.88737 0.17158,-0.2059 1.64716,-0.82359 1.64716,-0.82359 l 11.25562,-0.20589 14.6872,3.19138 3.32864,1.61285 1.33832,2.8139 -3.74043,-0.48042 -2.33348,1.16674 c 0,0 -3.29433,7.3436 -3.29433,7.3436 l -6.27981,-8.51034 -15.45943,-2.8334 z"
         id="path1179" />
    </g>
  </g>
</svg>
